<svg xmlns="http://www.w3.org/2000/svg" width="276.956" height="278.824" viewBox="0 0 276.956 278.824">
  <g id="Сгруппировать_536" data-name="Сгруппировать 536" transform="translate(-416.729 -1083.286)">
    <path id="Контур_22" data-name="Контур 22" d="M623.3,824.07c-16.75-6.52-32.88-20.46-49.73-30-6-3.16-12.4-6.12-19-9.05-32.83-14.62-69.45-28.25-75.88-67.44a114.2,114.2,0,0,1-1.58-18c-.07-18.21,5-36.3,20.64-47.61,11.53-7.37,23.54-14.09,34.55-21.82a136.586,136.586,0,0,0,15.61-12.56c14.9-14.11,18.69-37.15,35-49.57,13.34-10.14,32.13-10.4,48-8.34,16.83,2.19,34.61,4.35,51.24,7.54,17.57,3.38,37.9,9.78,50.39,23.89,16.82,19,9.4,43,8.64,65.93a357.925,357.925,0,0,0,1.87,52c1.48,13.1,3.53,25,7.76,37.46,4,12,4.38,24.78-.32,36.7-16.31,41.3-76.49,48.08-114.06,43.48a88.886,88.886,0,0,1-13.16-2.58" transform="translate(-60.38 524.63)" fill="#d4edfc"/>
    <path id="Контур_32" data-name="Контур 32" d="M749.72,691.71c-6.46,16.65-20.3,32.68-29.74,49.44-3.14,6-6.07,12.33-9,18.87-14.48,32.65-28,69.08-66.93,75.41a114,114,0,0,1-17.9,1.55c-18.1,0-36.1-5.06-47.37-20.62-7.34-11.5-14-23.45-21.75-34.43a136.8,136.8,0,0,0-12.52-15.56c-14-14.85-37-18.66-49.34-34.93-10.1-13.3-10.39-32-8.37-47.77,2.15-16.75,4.27-34.44,7.42-51,3.33-17.48,9.65-37.71,23.67-50.12,18.87-16.71,42.75-9.28,65.53-8.48a355.012,355.012,0,0,0,51.66-1.79c13-1.45,24.85-3.47,37.24-7.66,11.89-4,24.63-4.32,36.49.38,41.09,16.3,47.93,76.21,43.42,113.6a89.384,89.384,0,0,1-2.51,13.11Z" transform="translate(-60.38 524.63)" fill="none" stroke="#80bfe2" stroke-miterlimit="10" stroke-width="1"/>
  </g>
</svg>
