<svg xmlns="http://www.w3.org/2000/svg" width="282.471" height="285.408" viewBox="0 0 282.471 285.408">
  <g id="Сгруппировать_533" data-name="Сгруппировать 533" transform="translate(-433.366 -784.233)">
    <path id="Контур_21" data-name="Контур 21" d="M510.82,374.35c10.38-14.66,27.81-26.94,41.13-41,4.52-5,8.94-10.55,13.37-16.21,22.13-28.32,44.21-60.56,83.8-57.31A112.449,112.449,0,0,1,667,262.66c17.68,4.34,34,13.65,41.2,31.54,4.36,13,8,26.25,12.82,38.81a136.359,136.359,0,0,0,8.41,18.18c10.08,17.87,31.52,27.12,39.62,46,6.61,15.4,2.32,33.69-3.52,48.57-6.19,15.8-12.58,32.53-19.71,47.89-7.53,16.24-18.65,34.42-35.37,43.12-22.51,11.73-44-1.28-66.06-7.57a357.757,357.757,0,0,0-50.87-10.75c-13.08-1.74-25.11-2.62-38.23-1.54-12.59,1-25.11-1.74-35.53-9.19-36.13-25.81-28.15-85.84-14.6-121.19a89.579,89.579,0,0,1,5.69-12.15" transform="translate(-60.38 524.63)" fill="#f7ecf8"/>
    <path id="Контур_24" data-name="Контур 24" d="M609,527.6c-14.6-10.3-26.81-27.6-40.78-40.82-5-4.48-10.5-8.87-16.14-13.26-28.18-21.95-60.26-43.85-57-83.19A112.289,112.289,0,0,1,498,372.59c4.35-17.58,13.64-33.81,31.47-41,12.92-4.34,26.15-7.95,38.67-12.77a136.725,136.725,0,0,0,18.12-8.38c17.8-10,27-31.36,45.83-39.43,15.34-6.58,33.56-2.34,48.38,3.44,15.72,6.13,32.38,12.47,47.67,19.53,16.17,7.46,34.26,18.49,42.91,35.09,11.65,22.35-1.33,43.73-7.62,65.64a353.993,353.993,0,0,0-10.77,50.56c-1.75,13-2.64,24.95-1.58,38,1,12.5-1.76,24.94-9.19,35.31-25.75,35.92-85.54,28.07-120.73,14.65A89.285,89.285,0,0,1,609,527.6Z" transform="translate(-60.38 524.63)" fill="none" stroke="#ae44b9" stroke-miterlimit="10" stroke-width="1"/>
  </g>
</svg>
