<svg xmlns="http://www.w3.org/2000/svg" width="293.548" height="276.952" viewBox="0 0 293.548 276.952">
  <g id="Сгруппировать_535" data-name="Сгруппировать 535" transform="translate(-821.492 -788.432)">
    <path id="Контур_28" data-name="Контур 28" d="M1096.42,502.12c-15.76,2.72-34.43-.5-51.64,0-6,.34-12.26,1-18.61,1.82-31.73,3.95-65.9,10.4-88.72-16.58a100.336,100.336,0,0,1-9.43-13c-8.37-13.88-12.76-30-6-45.86,5.44-10.94,11.53-21.59,16.4-32.57a122.911,122.911,0,0,0,6.16-16.78c4.92-17.63-2.72-37,4.07-54,5.54-13.89,19.76-22.74,32.8-28.46,13.83-6.08,28.39-12.61,42.53-17.83,15-5.51,33.39-10,49.37-5,21.52,6.77,26.83,28.52,36.72,46.38a317.321,317.321,0,0,0,25.18,38.82c7.12,9.33,14.11,17.46,23,25,8.56,7.28,14.67,16.91,16.52,28.18,6.44,39-36.38,71.93-67.15,85.71a79.158,79.158,0,0,1-11.22,4.09" transform="translate(-60.38 524.63)" fill="#d4edfc"/>
    <path id="Контур_29" data-name="Контур 29" d="M1104.76,481.52c-14.57,9.35-34.56,14-51.52,21.77-5.86,2.87-11.8,6.19-17.79,9.65-30,17.31-61.33,38.13-95.51,20.95a109.6,109.6,0,0,1-14.92-9c-14.23-10.26-25.44-24.46-25.41-43,.78-13.16,2.34-26.32,2.56-39.28a133.126,133.126,0,0,0-1-19.28c-2.55-19.59-18.36-35.59-18.79-55.34-.35-16.13,10.08-30.92,20.66-42.1,11.23-11.88,23-24.51,34.88-35.66,12.58-11.78,29.07-24,47.14-25.74,24.33-2.35,38.84,17,56.26,30.59a343.4,343.4,0,0,0,41.55,28c11,6.27,21.47,11.39,33.58,15.16,11.62,3.62,21.79,10.62,28.41,21,22.95,36.08-5.83,86.82-30.68,113.49A86.506,86.506,0,0,1,1104.76,481.52Z" transform="translate(-60.38 524.63)" fill="none" stroke="#80bfe2" stroke-miterlimit="10" stroke-width="1"/>
  </g>
</svg>
