<svg xmlns="http://www.w3.org/2000/svg" xmlns:xlink="http://www.w3.org/1999/xlink" width="78.173" height="41.398" viewBox="0 0 78.173 41.398">
  <defs>
    <clipPath id="clip-path">
      <path id="SVGID" d="M320.1,294.9c-.527,2.46-4.932,6.355-10.227,9.031a61.826,61.826,0,0,0-6.5,3.757c7.129,2.543,14.043,8.983,17.707,16.529.664,1.366,1.7.836,2.063.225a25.346,25.346,0,0,0,2.815-19.354c-1.142-3.949-3.677-7.435-5.853-10.189" transform="translate(-303.364 -294.903)" fill="none" clip-rule="evenodd"/>
    </clipPath>
    <linearGradient id="linear-gradient" x1="0.606" y1="0.978" x2="0.462" y2="0.33" gradientUnits="objectBoundingBox">
      <stop offset="0" stop-color="#0070ae"/>
      <stop offset="1" stop-color="#003c5e"/>
    </linearGradient>
    <clipPath id="clip-path-2">
      <path id="SVGID-2" data-name="SVGID" d="M198.975,302.328c.527-2.46,4.932-6.355,10.227-9.031a61.776,61.776,0,0,0,6.5-3.758C208.578,287,201.663,280.556,198,273.01c-.663-1.366-1.7-.836-2.063-.225a25.348,25.348,0,0,0-2.815,19.354c1.142,3.949,3.677,7.435,5.853,10.189" transform="translate(-192.315 -272.152)" fill="none" clip-rule="evenodd"/>
    </clipPath>
    <linearGradient id="linear-gradient-2" x1="-0.174" y1="0.096" x2="0.587" y2="0.552" gradientUnits="objectBoundingBox">
      <stop offset="0" stop-color="#dd7fb1"/>
      <stop offset="1" stop-color="#a63480"/>
    </linearGradient>
    <clipPath id="clip-path-3">
      <path id="SVGID-3" data-name="SVGID" d="M232.995,312.263a36.113,36.113,0,0,1-5.466,1.109c-13.161,1.6-28.728-2.674-33.027-17.857,3.03,1.075,7.078-.053,11.511-2.57q1.216-.69,2.466-1.515c6.244-4.112,12.454-8.481,19.253-11.575A44.683,44.683,0,0,1,232,278.173a36.3,36.3,0,0,1,5.466-1.109c12.828-1.569,28.728,2.674,33.027,17.857-3.03-1.075-7.078.053-11.511,2.57q-1.215.69-2.466,1.515c-6.244,4.112-12.453,8.481-19.252,11.575a44.734,44.734,0,0,1-4.265,1.682" transform="translate(-194.502 -276.758)" fill="none" clip-rule="evenodd"/>
    </clipPath>
    <linearGradient id="linear-gradient-3" x1="0.228" y1="0.857" x2="0.934" y2="-0.071" gradientUnits="objectBoundingBox">
      <stop offset="0" stop-color="#df7fb1"/>
      <stop offset="1" stop-color="#007fc3"/>
    </linearGradient>
    <clipPath id="clip-path-4">
      <path id="SVGID-4" data-name="SVGID" d="M271.772,303.29a9.964,9.964,0,1,0-9.4,10.5,9.964,9.964,0,0,0,9.4-10.5" transform="translate(-251.858 -293.871)" fill="none" clip-rule="evenodd"/>
    </clipPath>
    <linearGradient id="linear-gradient-4" x1="0.485" y1="0.694" x2="0.547" y2="-0.121" xlink:href="#linear-gradient"/>
  </defs>
  <g id="Group_534" data-name="Group 534" transform="translate(-192.315 -266.254)">
    <g id="Group_4" data-name="Group 4" transform="translate(247.095 277.477)">
      <g id="Group_3" data-name="Group 3" clip-path="url(#clip-path)">
        <rect id="Rectangle_2" data-name="Rectangle 2" width="24.182" height="30.683" transform="translate(0 0)" fill="url(#linear-gradient)"/>
      </g>
    </g>
    <g id="Group_6" data-name="Group 6" transform="translate(192.315 266.254)">
      <g id="Group_5" data-name="Group 5" transform="translate(0 0)" clip-path="url(#clip-path-2)">
        <rect id="Rectangle_3" data-name="Rectangle 3" width="24.182" height="30.683" transform="translate(-0.79 -0.508)" fill="url(#linear-gradient-2)"/>
      </g>
    </g>
    <g id="Group_533" data-name="Group 533">
      <g id="Group_8" data-name="Group 8" transform="translate(193.394 268.525)">
        <g id="Group_7" data-name="Group 7" transform="translate(0)" clip-path="url(#clip-path-3)">
          <rect id="Rectangle_4" data-name="Rectangle 4" width="75.987" height="39.481" transform="translate(0 -1.263)" fill="url(#linear-gradient-3)"/>
        </g>
      </g>
      <path id="Path_6" data-name="Path 6" d="M271.655,298.987a14.041,14.041,0,1,0-13.25,14.789,14.04,14.04,0,0,0,13.25-14.789" transform="translate(-25.983 -12.771)" fill="#fff" fill-rule="evenodd"/>
      <g id="Group_10" data-name="Group 10" transform="translate(221.688 276.968)">
        <g id="Group_9" data-name="Group 9" transform="translate(0 0)" clip-path="url(#clip-path-4)">
          <rect id="Rectangle_5" data-name="Rectangle 5" width="20.502" height="20.502" transform="translate(-0.287 -0.286)" fill="url(#linear-gradient-4)"/>
        </g>
      </g>
      <path id="Path_7" data-name="Path 7" d="M281.732,294.607a3.774,3.774,0,1,0-3.561,3.975,3.774,3.774,0,0,0,3.561-3.975" transform="translate(-41.486 -15.469)" fill="#fff" fill-rule="evenodd"/>
    </g>
  </g>
</svg>
