<svg xmlns="http://www.w3.org/2000/svg" width="50.7" height="56.72" viewBox="0 0 50.7 56.72">
  <g id="Сгруппировать_534" data-name="Сгруппировать 534" transform="translate(-411 -877.41)">
    <path id="Контур_58" data-name="Контур 58" d="M487.82,399.65h17.91V408H487.82Zm9-13.41V394m-14.66-39.72,1.57,20.2a13.17,13.17,0,0,0,26.18,0l1.56-20.2H482.16Zm29.31,5h9.11l-1.32,5.89a16.18,16.18,0,0,1-9.69,11.35M482,359.25h-9.12l1.33,5.89a16.14,16.14,0,0,0,9.69,11.35M496.78,394a4.67,4.67,0,0,0-4.66,4.67v1h9.31v-1a4.66,4.66,0,0,0-4.65-4.67Z" transform="translate(-60.38 524.63)" fill="none" stroke="#024b76" stroke-linecap="round" stroke-linejoin="round" stroke-width="3"/>
    <path id="Контур_59" data-name="Контур 59" d="M500.79,373.66l-.78-4.55,3.29-3.23m-10.65,7.78,4.07-2.15,4.07,2.15m-10.66-7.78,3.29,3.23-.77,4.55m4.07-12.59-2,4.15-4.55.66m13.17,0-4.55-.66-2-4.15" transform="translate(-60.38 524.63)" fill="none" stroke="#cc79a3" stroke-linecap="round" stroke-linejoin="round" stroke-width="3"/>
  </g>
</svg>
