<svg xmlns="http://www.w3.org/2000/svg" width="42.572" height="60.307" viewBox="0 0 42.572 60.307">
  <g id="Сгруппировать_535" data-name="Сгруппировать 535" transform="translate(-807.482 -875.623)">
    <path id="Контур_34" data-name="Контур 34" d="M889.68,387.38l2.4,1.1,1.9-1.8a1.5,1.5,0,0,1,1.1-.4l2.6.2,1.2-2.3a1.42,1.42,0,0,1,.9-.8l2.5-.7.3-2.6a1.33,1.33,0,0,1,.6-1l2.1-1.5-.6-2.5a1.721,1.721,0,0,1,.2-1.2l1.4-2.2-1.4-2.2a1.64,1.64,0,0,1-.2-1.2l.6-2.5-2.1-1.5a1.33,1.33,0,0,1-.6-1l-.3-2.6-2.5-.7a1.42,1.42,0,0,1-.9-.8l-1.2-2.3-2.6-.2a1.5,1.5,0,0,1-1.1-.4l-1.9-1.8-2.4,1.1a1.27,1.27,0,0,1-1.2,0l-2.4-1.1-1.9,1.8a1.5,1.5,0,0,1-1.1.4l-2.6-.2-1.2,2.3a1.42,1.42,0,0,1-.9.8l-2.5.7-.3,2.6a1.33,1.33,0,0,1-.6,1l-2.1,1.5.6,2.5a1.72,1.72,0,0,1-.2,1.2l-1.4,2.2,1.4,2.2a1.64,1.64,0,0,1,.2,1.2l-.6,2.5,2.1,1.5a1.33,1.33,0,0,1,.6,1l.3,2.6,2.5.7a1.42,1.42,0,0,1,.9.8l1.2,2.3,2.6-.2h.1a1.16,1.16,0,0,1,1,.4l1.9,1.8,2.4-1.1a2.84,2.84,0,0,0,1.2.4m2.1,4.2-2.7-1.2-2.7,1.2a1.27,1.27,0,0,1-.6.1,1.16,1.16,0,0,1-1-.4l-2.1-2-3,.2a1.49,1.49,0,0,1-1.4-.8L877,386l-2.9-.8a1.63,1.63,0,0,1-1.1-1.3l-.3-2.9-2.4-1.8a1.66,1.66,0,0,1-.6-1.6l.7-2.9-1.6-2.5a1.72,1.72,0,0,1,0-1.7l1.6-2.5-.7-2.9a1.66,1.66,0,0,1,.6-1.6l2.4-1.8.3-2.9a1.63,1.63,0,0,1,1.1-1.3l2.8-.8,1.3-2.7a1.42,1.42,0,0,1,1.4-.8l3,.2,2.1-2a1.57,1.57,0,0,1,1.6-.3l2.7,1.2,2.7-1.2a1.53,1.53,0,0,1,1.6.3l2.1,2,3-.2a1.49,1.49,0,0,1,1.4.8l1.3,2.7,2.8.8a1.63,1.63,0,0,1,1.1,1.3l.3,2.9,2.4,1.8a1.66,1.66,0,0,1,.6,1.6l-.5,3.1,1.6,2.5a1.72,1.72,0,0,1,0,1.7l-1.6,2.5.7,2.9a1.66,1.66,0,0,1-.6,1.6l-2.4,1.8-.3,2.9a1.71,1.71,0,0,1-1.1,1.1l-2.8.8-1.3,2.7a1.42,1.42,0,0,1-1.4.8l-3-.2-2.1,2a1.38,1.38,0,0,1-1.7.3m18.5,12.7-7.7-16.4-.8,1.6a3.741,3.741,0,0,1-1.2,1.3L905,400l-4.7-3.5a1.48,1.48,0,0,0-2.4,1.1l-.3,5.8-4.6-9.9c-.2,0-.4.1-.6.1a3.19,3.19,0,0,1-1.4-.3l-1.8-.8,8.3,17.7a1.69,1.69,0,0,0,1.4.9h.3a1.4,1.4,0,0,0,1.2-1.4l.4-9.1,7.2,5.5a1.5,1.5,0,0,0,1.8,0,1.44,1.44,0,0,0,.5-1.8m-23.1-10.8,1.8-.8-8.3,17.7a1.69,1.69,0,0,1-1.4.9H879a1.4,1.4,0,0,1-1.2-1.4l-.4-9.1-7.2,5.4a1.5,1.5,0,0,1-1.8,0,1.53,1.53,0,0,1-.4-1.8l7.7-16.4.8,1.6a3,3,0,0,0,1.2,1.3l-4.4,9.2,4.7-3.5a1.61,1.61,0,0,1,.9-.3,1.27,1.27,0,0,1,.6.1,1.6,1.6,0,0,1,.9,1.3l.3,5.8,4.6-9.9c.2,0,.4.1.6.1a2.09,2.09,0,0,0,1.3-.2" transform="translate(-60.38 524.63)" fill="#024b76"/>
    <path id="Контур_35" data-name="Контур 35" d="M888.87,371.47c0,4.18,2.5,6.68,5.63,6.68s5.64-2.5,5.64-6.68-2.5-6.68-5.64-6.68-5.63,2.5-5.63,6.68m8.25,0c0,2.53-1.26,3.76-2.62,3.76s-2.61-1.23-2.61-3.76,1.26-3.76,2.61-3.76,2.62,1.27,2.62,3.76M878.22,378h9.08v-2.92h-4.59l2.5-2.61a8.369,8.369,0,0,0,1-1.12,4.52,4.52,0,0,0,1-2.64c0-2.29-1.67-4-4.59-4s-4.6,1.77-4.6,4.17l2.92.21a1.52,1.52,0,0,1,1.68-1.67,1.29,1.29,0,0,1,1.46,1.36,2.42,2.42,0,0,1-.59,1.4,6.785,6.785,0,0,1-.56.69l-4.8,5Z" transform="translate(-60.38 524.63)" fill="#cc79a3"/>
  </g>
</svg>
