<svg xmlns="http://www.w3.org/2000/svg" width="57.25" height="57.134" viewBox="0 0 57.25 57.134">
  <g id="Сгруппировать_537" data-name="Сгруппировать 537" transform="translate(-1191.1 -873.46)">
    <g id="Сгруппировать_536" data-name="Сгруппировать 536">
      <path id="Контур_37" data-name="Контур 37" d="M1280.18,375.16l-19.55,19.55a1.535,1.535,0,0,0,2.14,2.2h0l19.55-19.55a1.534,1.534,0,1,0-2.17-2.17" transform="translate(-60.38 524.63)" fill="#cc79a3"/>
      <path id="Контур_38" data-name="Контур 38" d="M1254.12,386a1.535,1.535,0,1,0-2.21,2.13h0l4.35,4.34a1.535,1.535,0,0,0,2.2-2.14h0Z" transform="translate(-60.38 524.63)" fill="#cc79a3"/>
      <path id="Контур_39" data-name="Контур 39" d="M1260.26,387.59a1.543,1.543,0,1,0,2.92-1L1261,380.1a1.52,1.52,0,0,0-1.94-1,1.54,1.54,0,0,0-1,1.94Z" transform="translate(-60.38 524.63)" fill="#cc79a3"/>
      <path id="Контур_40" data-name="Контур 40" d="M1267.15,399.05a1.534,1.534,0,0,0-2.17,2.17l4.34,4.35a1.54,1.54,0,0,0,2.17-2.18Z" transform="translate(-60.38 524.63)" fill="#cc79a3"/>
      <path id="Контур_41" data-name="Контур 41" d="M1277.41,396.51l-6.52-2.18a1.543,1.543,0,0,0-1,2.92l6.52,2.17a1.54,1.54,0,0,0,1-2.91h0" transform="translate(-60.38 524.63)" fill="#cc79a3"/>
      <path id="Контур_42" data-name="Контур 42" d="M1305.16,356.69l-11.94,11.95-4.35-4.35,12-11.94a1.53,1.53,0,0,1,2.17,0l2.17,2.17a1.53,1.53,0,0,1,0,2.17Zm-17.38,15.21-2.17-2.18a1.53,1.53,0,0,1,0-2.17h0l1.09-1.08,4.34,4.34L1290,371.9a1.58,1.58,0,0,1-2.18,0m20.91-16.29a4.61,4.61,0,0,0-1.35-3.26l-2.18-2.17a4.6,4.6,0,0,0-6.51,0l-15.21,15.2a4.61,4.61,0,0,0,0,6.52h0l2.17,2.17a4.61,4.61,0,0,0,6.52,0l15.21-15.21a4.6,4.6,0,0,0,1.35-3.25" transform="translate(-60.38 524.63)" fill="#024b76"/>
    </g>
  </g>
</svg>
