<svg xmlns="http://www.w3.org/2000/svg" width="58.091" height="54.371" viewBox="0 0 58.091 54.371">
  <g id="Сгруппировать_538" data-name="Сгруппировать 538" transform="translate(-406.663 -1166.259)">
    <path id="Контур_64" data-name="Контур 64" d="M474.72,671.3h-.1l-4.25.65a.62.62,0,0,0-.44.27.7.7,0,0,0-.13.51l2.8,18.12a.68.68,0,0,0,.27.45.7.7,0,0,0,.51.12l4.25-.65a.71.71,0,0,0,.45-.28.7.7,0,0,0,.12-.51l-2.8-18.11a.65.65,0,0,0-.27-.45.66.66,0,0,0-.41-.13m-1.45,22.9a3.46,3.46,0,0,1-3.4-2.91l-2.79-18.13a3.49,3.49,0,0,1,.63-2.56,3.36,3.36,0,0,1,2.24-1.36l4.25-.66a3.5,3.5,0,0,1,2.56.63,3.36,3.36,0,0,1,1.36,2.25l2.8,18.12a3.44,3.44,0,0,1-2.87,3.92l-4.25.65a2.382,2.382,0,0,1-.53.05" transform="translate(-60.38 524.63)" fill="#024b76"/>
    <path id="Контур_65" data-name="Контур 65" d="M495.38,696c-2.89,0-12.71-2.9-15.79-3.82a1.38,1.38,0,0,1,.8-2.64c6.26,1.89,13.77,3.85,15,3.71,1.33-.32,11.44-5.83,18.14-9.48,3.25-1.76,6.32-3.43,8.28-4.46a1.07,1.07,0,0,0,.57-.87.88.88,0,0,0-.37-.84,6.24,6.24,0,0,0-4.81-1l-12.72,2a1.38,1.38,0,0,1-.42-2.72l12.72-2a8.93,8.93,0,0,1,6.88,1.54,3.7,3.7,0,0,1,1.46,3.27,3.82,3.82,0,0,1-2,3.08c-1.94,1-5,2.68-8.23,4.44-12.37,6.73-17.75,9.58-19,9.78a2.239,2.239,0,0,1-.4,0" transform="translate(-60.38 524.63)" fill="#024b76"/>
    <path id="Контур_66" data-name="Контур 66" d="M488.18,686.49a1.37,1.37,0,0,1-.2-2.73l15.95-2.47a.78.78,0,0,0,.56-.4.69.69,0,0,0,0-.62c-1.32-2.67-3.18-3.84-5.52-3.48l-7,1.08a4.76,4.76,0,0,1-4-1.27c-1.2-1.14-3.6-3-6.18-2.59l-3.62.55-.46.06h-.17c-.65,0-1.42-.12-1.57-1.12a1.38,1.38,0,0,1,1.15-1.57h0l4.24-.65c3.74-.58,6.93,1.84,8.5,3.32a2,2,0,0,0,1.72.55l7-1.09c3.57-.54,6.56,1.22,8.41,5a3.41,3.41,0,0,1,0,3.11,3.53,3.53,0,0,1-2.58,1.85l-16,2.47h-.22" transform="translate(-60.38 524.63)" fill="#024b76"/>
    <path id="Контур_70" data-name="Контур 70" d="M510,384.537l-1.454-8.481,6.132-6.021m-19.851,14.5,7.586-4.008L510,384.537m-19.87-14.5,6.133,6.021-1.435,8.481m7.586-23.468-3.728,7.736-8.481,1.23m24.549,0-8.481-1.23-3.728-7.736" transform="translate(-66.087 807.191)" fill="none" stroke="#cc79a3" stroke-linecap="round" stroke-linejoin="round" stroke-width="3"/>
  </g>
</svg>
