<svg xmlns="http://www.w3.org/2000/svg" width="51.229" height="56.372" viewBox="0 0 51.229 56.372">
  <g id="Сгруппировать_534" data-name="Сгруппировать 534" transform="translate(-803.141 -1166.97)">
    <path id="Контур_49" data-name="Контур 49" d="M875.55,657.81a1.2,1.2,0,1,1-1.18,1.2,1.2,1.2,0,0,1,1.18-1.2" transform="translate(-60.38 524.63)" fill="#cc79a3"/>
    <path id="Контур_50" data-name="Контур 50" d="M885,657.81a1.19,1.19,0,1,1-.845.352,1.2,1.2,0,0,1,.845-.352" transform="translate(-60.38 524.63)" fill="#cc79a3"/>
    <path id="Контур_51" data-name="Контур 51" d="M884.63,664.59a1.14,1.14,0,0,0,0-1.58,1.12,1.12,0,0,0-1.57,0,4.82,4.82,0,0,1-5.55,0,1.12,1.12,0,0,0-1.58,0,1.14,1.14,0,0,0,0,1.59,6.92,6.92,0,0,0,8.68,0" transform="translate(-60.38 524.63)" fill="#cc79a3"/>
    <path id="Контур_801" data-name="Контур 801" d="M868.38,656.62v-.19h4.08a1.11,1.11,0,0,0,1-.62l1.61-3.25,1.61,3.25a1.11,1.11,0,0,0,1,.62h5.22a1.11,1.11,0,0,0,1-.62l1.61-3.25,1.61,3.25a1.11,1.11,0,0,0,1,.62h4.08v.19a11.91,11.91,0,0,1-23.82,0m-2.44-7.72c.27-1.71.95-3.35,2.5-3.95a4,4,0,0,1,3.56.12,14.5,14.5,0,0,0-1.53,1.29,11,11,0,0,0-4.53,2.54m26,5.27H888.8l-2.3-4.64a1.16,1.16,0,0,0-1.59-.4,1.21,1.21,0,0,0-.41.4l-2.29,4.64h-3.84l-2.29-4.64a1.12,1.12,0,0,0-1.5-.5,1.15,1.15,0,0,0-.5.5l-2.3,4.64h-3.15a11.89,11.89,0,0,1,23.32,0m.19-9.22c1.55.6,2.23,2.24,2.5,3.95a11,11,0,0,0-4.53-2.54,14.494,14.494,0,0,0-1.53-1.29,4,4,0,0,1,3.56-.12m-10.73,25.89a14.23,14.23,0,0,0,13-14.22,9.431,9.431,0,0,0-.06-1.31h0a14.452,14.452,0,0,0-1.35-4.85,4.45,4.45,0,0,1,1.54,3.41,1.13,1.13,0,0,0,.94,1.25h.17a1.12,1.12,0,0,0,1.1-.91c.07-.38,1.67-9.21-3.83-11.36a6.22,6.22,0,0,0-6.47.95,13.85,13.85,0,0,0-12.36,0,6.22,6.22,0,0,0-6.47-.95c-5.5,2.15-3.9,11-3.83,11.36a1.12,1.12,0,0,0,2.21-.34,4.41,4.41,0,0,1,1.54-3.41,14.332,14.332,0,0,0-1.35,4.84h0c0,.43-.06.86-.06,1.31a14.23,14.23,0,0,0,13,14.22" transform="translate(-60.38 524.63)" fill="#cc79a3"/>
    <path id="Контур_53" data-name="Контур 53" d="M895.46,685.37a1.21,1.21,0,1,1-.859.358,1.22,1.22,0,0,1,.859-.358" transform="translate(-60.38 524.63)" fill="#024b76"/>
    <path id="Контур_54" data-name="Контур 54" d="M905.13,685.37a1.22,1.22,0,1,0,1.21,1.22,1.22,1.22,0,0,0-1.21-1.22" transform="translate(-60.38 524.63)" fill="#024b76"/>
    <path id="Контур_55" data-name="Контур 55" d="M903.14,690.67a5,5,0,0,1-5.7,0,1.1,1.1,0,0,0-1.57,0,1.14,1.14,0,0,0,0,1.58,7.08,7.08,0,0,0,8.84,0,1.124,1.124,0,1,0-1.57-1.61" transform="translate(-60.38 524.63)" fill="#024b76"/>
    <path id="Контур_802" data-name="Контур 802" d="M900.29,696.46a12.24,12.24,0,0,1-12.13-11.3,14,14,0,0,0,9.39-6.64c1.58,2.66,5.39,6.89,13.55,6.89h1.32a12.26,12.26,0,0,1-12.13,11.09m0-24.62a12.25,12.25,0,0,1,12.14,11.25c-11.22.65-13.63-7-13.73-7.31a1.137,1.137,0,0,0-2.1-.2c-2.67,5.4-6.53,6.88-8.46,7.28a12.25,12.25,0,0,1,12.12-11m9.37,1.26a14.31,14.31,0,0,0-20.31,1.62A14.65,14.65,0,0,0,891,695.23a14.31,14.31,0,0,0,20.31-1.62,14.64,14.64,0,0,0,3.44-9.46V684h0a14.63,14.63,0,0,0-3.47-9.35" transform="translate(-60.38 524.63)" fill="#024b76"/>
  </g>
</svg>
