<svg xmlns="http://www.w3.org/2000/svg" width="51.17" height="53.07" viewBox="0 0 51.17 53.07">
  <g id="Сгруппировать_535" data-name="Сгруппировать 535" transform="translate(-1194.12 -1166.34)">
    <path id="Контур_811" data-name="Контур 811" d="M1260.08,687v7.74h-3.88V666.45a1.94,1.94,0,1,1,3.88,0V683.2h43.82v11.58H1300V687Z" transform="translate(-60.38 524.63)" fill="#024b76"/>
    <path id="Контур_45" data-name="Контур 45" d="M1266.07,674.62a3.68,3.68,0,1,0-3.52-3.68,3.6,3.6,0,0,0,3.52,3.68" transform="translate(-60.38 524.63)" fill="#cc79a3"/>
    <path id="Контур_810" data-name="Контур 810" d="M1304,680.16V675.1a3,3,0,0,0-2.81-2.9l-27.66-2.88a1.129,1.129,0,0,0-.15,0,1.78,1.78,0,0,0-1.73,1.8v5.45h-7.24a1.82,1.82,0,0,0,0,3.63Z" transform="translate(-60.38 524.63)" fill="#cc79a3"/>
    <path id="Контур_809" data-name="Контур 809" d="M859.54,486.63l-25.55-13.25-.01-.04-.03.02-.02-.02-.01.04-13.864,7.19-11.686,6.06,2.13,4.47,23.45-12.17,23.46,12.17Z" transform="translate(385.75 693)" fill="#024b76"/>
  </g>
</svg>
