<svg xmlns="http://www.w3.org/2000/svg" width="431.169" height="418.187" viewBox="0 0 431.169 418.187">
  <g id="Сгруппировать_540" data-name="Сгруппировать 540" transform="translate(-455.511 -1562.819)">
    <path id="Контур_77" data-name="Контур 77" d="M619.118,404.024c24.479-2.079,52.781,5.283,79.247,6.814,9.266.269,18.927.036,28.751-.334,49.12-1.848,102.262-7.2,134.318,36.923a157.158,157.158,0,0,1,13.055,21.087c11.328,22.252,16.3,47.454,4.209,70.693-9.534,15.955-20.04,31.4-28.719,47.494a184.362,184.362,0,0,0-11.3,24.765c-9.477,26.224.129,56.713-12.142,81.734-10.024,20.435-32.809,32.051-53.438,39.063-21.9,7.444-44.944,15.5-67.225,21.587-23.545,6.436-52.323,10.835-76.3,1.067-32.279-13.153-38.044-47-51.266-75.511a494.542,494.542,0,0,0-34.388-62.482c-9.9-15.159-19.751-28.47-32.619-41.2-12.34-12.209-20.658-27.7-22.274-45.111-5.6-60.362,63.7-104.865,112.42-121.829a121.529,121.529,0,0,1,17.664-4.761" transform="translate(-33.204 1220.379)" fill="#d4edfc"/>
    <g id="Сгруппировать_539" data-name="Сгруппировать 539">
      <path id="Контур_76" data-name="Контур 76" d="M753.869,701.9c-23.9-5.691-48.4-21.525-73.021-31.258-8.708-3.155-17.952-5.958-27.4-8.682-47.214-13.621-99.372-25.187-115.6-77.024a155.527,155.527,0,0,1-5.607-24.067c-3.6-24.631-.2-50.066,18.743-68.3,14.181-12.135,29.121-23.484,42.534-36.016a186.277,186.277,0,0,0,18.688-19.931c17.43-21.882,18.12-53.779,37.814-73.648,16.087-16.227,41.449-20.1,63.284-20.291,23.178-.2,47.64-.618,70.746.584,24.417,1.271,53.145,6.109,72.755,22.867,26.406,22.565,20.99,56.442,24.368,87.6a489.715,489.715,0,0,0,12.54,69.969c4.523,17.463,9.589,33.158,17.707,49.247,7.785,15.431,10.7,32.708,6.63,49.716-14.1,58.95-94.184,79.432-145.885,80.257a122.092,122.092,0,0,1-18.3-1.016" transform="translate(-33.204 1220.379)" fill="#f7ecf8"/>
      <path id="Контур_78" data-name="Контур 78" d="M730.461,356.829c10.936.838,21.928,1.239,32.8,2.618,15.824,2.008,29.108,9.614,40.209,20.882a99.679,99.679,0,0,0,35.148,23.394c26.458,10.3,40.93,31.827,52.2,56.2,4.573,9.885,2.986,20.544,1.515,30.846-1.92,13.454.294,25.559,9.242,36.084,1.368,1.608,2.537,3.386,3.891,5.007,6.787,8.126,9.675,17.2,9.236,28.043-.675,16.693-1.967,33.161-7.418,49.064-3.534,10.312-8.609,19.775-16.907,26.97a89.684,89.684,0,0,0-26.848,40.174,42.633,42.633,0,0,1-23.625,26.142,154.172,154.172,0,0,0-35.511,22.315c-8.788,7.368-19.527,9.891-30.564,11.112-11.164,1.234-21.964,3.589-32.073,8.657-10.813,5.421-22.022,8.9-34.35,7.738A243.206,243.206,0,0,1,651.958,740c-16.123-5.471-32.308-10.775-47.139-19.46-15.286-8.952-27.295-20.886-34.334-37.371A147.36,147.36,0,0,0,545.1,642.652c-7.1-7.98-10.407-17.808-12.786-28.153-2.734-11.888-5.409-23.915-9.666-35.3-6.207-16.593-6.058-33.212-4.345-50.429,1.886-18.967,9.038-35.347,19.4-51.043,5.413-8.2,9.273-17.689,12.427-27.073,7.747-23.041,23.357-39.6,42.194-53.582,9.93-7.369,22.036-9.484,33.79-12.132,9.684-2.183,19.415-4.153,29.138-6.157,10.568-2.177,20.675-5.621,29.727-11.587,10.96-7.225,22.729-10.9,35.928-9.6,3.137.308,6.331.045,9.5.045Z" transform="translate(-33.204 1220.379)" fill="none" stroke="#ad44b8" stroke-miterlimit="10" stroke-width="1.03"/>
      <rect id="Прямоугольник_6" data-name="Прямоугольник 6" width="359.574" height="360.139" transform="translate(505.511 1599.771)" fill="none"/>
    </g>
  </g>
</svg>
