<svg xmlns="http://www.w3.org/2000/svg" width="42.493" height="37.582" viewBox="0 0 42.493 37.582">
  <g id="Сгруппировать_553" data-name="Сгруппировать 553" transform="translate(-386.818 -692.771)">
    <path id="Контур_667" data-name="Контур 667" d="M406.564,718.272h3v-12.5h-3Zm2.938,4.637a2.056,2.056,0,0,0,0-2.825,2.054,2.054,0,0,0-2.875,0,2.053,2.053,0,0,0,0,2.825,2.051,2.051,0,0,0,2.875,0" fill="#98416e"/>
    <path id="Контур_668" data-name="Контур 668" d="M409.562,694.848c-.827-1.436-2.168-1.436-3,0l-18.378,31.9c-.827,1.436-.155,2.6,1.5,2.6h36.747c1.657,0,2.33-1.164,1.5-2.6Z" fill="none" stroke="#98416e" stroke-width="2"/>
  </g>
</svg>
