<svg xmlns="http://www.w3.org/2000/svg" width="20.255" height="19.814" viewBox="0 0 20.255 19.814">
  <path id="Path_201" data-name="Path 201" d="M655.157,433.143H672.77v8.58a1.093,1.093,0,0,1-1.108,1.107h-15.4a1.093,1.093,0,0,1-1.108-1.107Zm13.437-4.4a.661.661,0,1,1-.661.661.651.651,0,0,1,.661-.661m-9.247,0a.661.661,0,1,1-.66.661.65.65,0,0,1,.66-.661m1.754-3.082a.661.661,0,0,0,0,1.321h5.724a.661.661,0,1,0,0-1.321Zm-4.836,0a2.439,2.439,0,0,0-2.429,2.429v13.636a2.438,2.438,0,0,0,2.429,2.428h15.4a2.438,2.438,0,0,0,2.429-2.428V428.087a2.439,2.439,0,0,0-2.429-2.429h-1.314a.661.661,0,1,0,0,1.321h1.314a1.1,1.1,0,0,1,1.108,1.108v3.735H655.157v-3.735a1.093,1.093,0,0,1,1.108-1.108h1.314a.661.661,0,1,0,0-1.321Zm12.329-1.321a.661.661,0,0,0-.661.66v2.539a1.982,1.982,0,1,0,1.321,0V425a.661.661,0,0,0-.66-.66m-9.247,0a.66.66,0,0,0-.66.66v2.539a1.981,1.981,0,1,0,1.32,0V425a.66.66,0,0,0-.66-.66" transform="translate(-653.836 -424.337)" fill="#999"/>
</svg>
