<svg xmlns="http://www.w3.org/2000/svg" xmlns:xlink="http://www.w3.org/1999/xlink" width="23.023" height="23.023" viewBox="0 0 23.023 23.023">
  <defs>
    <clipPath id="clip-path">
      <path id="Контур_45" data-name="Контур 45" d="M0,0H23.023V-23.023H0Z" fill="#fff"/>
    </clipPath>
  </defs>
  <g id="Сгруппировать_61" data-name="Сгруппировать 61" transform="translate(0 23.023)" clip-path="url(#clip-path)">
    <g id="Сгруппировать_60" data-name="Сгруппировать 60" transform="translate(22.394 -16.642)">
      <path id="Контур_44" data-name="Контур 44" d="M0,0A2.082,2.082,0,0,0,.629-1.528,2.083,2.083,0,0,0,0-3.056l-2.7-2.7a2.083,2.083,0,0,0-1.528-.629,2.083,2.083,0,0,0-1.528.629L-7.819-3.685a.56.56,0,0,0-.18.4.427.427,0,0,0,.18.359l4.988,4.988a.428.428,0,0,0,.36.18.559.559,0,0,0,.4-.18ZM-9.616-1.887a.557.557,0,0,1,.4-.18.428.428,0,0,1,.36.18L-3.864,3.1a.426.426,0,0,1,.179.359.559.559,0,0,1-.179.4L-15.638,15.638l-5.482.988a1.031,1.031,0,0,1-.943-.314,1.031,1.031,0,0,1-.315-.944l.989-5.482ZM-16.806,8.9a.61.61,0,0,0,.449.18.611.611,0,0,0,.45-.18l6.92-6.92a.608.608,0,0,0,.18-.449.611.611,0,0,0-.18-.45A.613.613,0,0,0-9.436.9a.614.614,0,0,0-.45.179L-16.806,8a.607.607,0,0,0-.18.449.608.608,0,0,0,.18.449m-1.618,3.775V10.515h-1.617l-.539,2.876,1.437,1.438,2.876-.54V12.672Z" fill="#fff"/>
    </g>
  </g>
</svg>
