<svg xmlns="http://www.w3.org/2000/svg" width="25.437" height="25.2" viewBox="0 0 25.437 25.2">
  <path id="Path_326" data-name="Path 326" d="M711.614,519.026H708.9a6,6,0,0,0-4.119-1.626h-6.705a1.227,1.227,0,0,0-1.231,1.219v7.316a1.228,1.228,0,0,0,1.231,1.22h.167l4.475,8.129h-1.77v-1.626h-4.1v1.626H695.2v-2.108a1.217,1.217,0,0,0,.821-1.144v-2.439a1.227,1.227,0,0,0-1.231-1.219h-1.641a1.226,1.226,0,0,0-1.231,1.219v2.439a1.218,1.218,0,0,0,.82,1.144v2.108h-1.23a1.226,1.226,0,0,0-1.231,1.219v4.471h2.551l.411,1.626h3.1l.411-1.626h7.564l.41,1.626h3.1l.411-1.626h2.551v-1.446a1.633,1.633,0,0,0,2.462-1.4v-.239l1.38-1.367a3.614,3.614,0,0,0,1.082-2.586V523.09a4.088,4.088,0,0,0-4.1-4.064m-13.539,7.316a.409.409,0,0,1-.41-.407v-7.316a.408.408,0,0,1,.41-.406h4.513v1.219a.408.408,0,0,1-.41.406h-1.641a1.227,1.227,0,0,0-1.231,1.22v5.284Zm4.234,6.5-3.132-5.69h1.77v-.813h-.821v-5.284a.41.41,0,0,1,.411-.407h1.641a1.226,1.226,0,0,0,1.231-1.219v-1.219h1.371a5.186,5.186,0,0,1,3.672,1.506,5.088,5.088,0,0,1,1.521,3.638v2.578a.409.409,0,0,1-.41.407h-7.8v.813h7.385v5.69Zm6.843.813v1.626h-5.5l-.895-1.626Zm-11.487.813h2.462v.813h-2.462Zm-4.924-4.878a.409.409,0,0,1,.411-.406h1.641a.408.408,0,0,1,.41.406v2.439a.408.408,0,0,1-.41.406h-1.641a.409.409,0,0,1-.411-.406Zm1.642,5.691h-.821v-2.032h.821Zm1.32,6.5h-1.821l-.2-.813h2.23Zm11.488,0H705.37l-.205-.813H707.4Zm2.782-4.065H692.741v.813h17.232v1.626H691.1v-1.626h.821v-.813H691.1V536.5a.41.41,0,0,1,.411-.407h18.462Zm.41-2.438h-.41v-8.2a1.219,1.219,0,0,0,.82-1.145v-2.578a5.953,5.953,0,0,0-.1-1.08h.512a1.226,1.226,0,0,1,1.23,1.22v9.557a2.011,2.011,0,0,1-.6,1.437l-.34.337a1.57,1.57,0,0,1-1.111.456m4.513-1.347a2.816,2.816,0,0,1-.841,2.012l-1.621,1.605v.575a.821.821,0,0,1-1.641,0V536.06a2.389,2.389,0,0,0,1.281-.657l.34-.337a2.816,2.816,0,0,0,.841-2.012v-2.648h.82v-.813h-.82v-.813h.82v-.813h-.82v-.812h.82v-.813h-.82v-.813h.82v-.813h-.82V523.5a2.044,2.044,0,0,0-2.051-2.033h-.725a5.914,5.914,0,0,0-.854-1.626h1.989a3.271,3.271,0,0,1,3.282,3.252Z" transform="translate(-690.28 -517.4)" fill="#007fc2"/>
</svg>
