<svg xmlns="http://www.w3.org/2000/svg" width="17.172" height="8.799" viewBox="0 0 17.172 8.799">
  <path id="Контур_20" data-name="Контур 20" d="M1037.78,27.84a10,10,0,0,0-16.78,0l-.3.42.3.43a11.341,11.341,0,0,0,3.59,3.29.68.68,0,0,0,.36.1.73.73,0,0,0,.37-1.37,9.87,9.87,0,0,1-2.81-2.45,8.48,8.48,0,0,1,14.07.43.74.74,0,0,0,1.2-.85m-8.39,2.09a1.67,1.67,0,1,1,1.67-1.67,1.67,1.67,0,0,1-1.67,1.67m0-4.8a3.14,3.14,0,1,0,3.14,3.13,3.14,3.14,0,0,0-3.14-3.13" transform="translate(-1020.7 -23.281)" fill="#007fc2"/>
</svg>
