<svg xmlns="http://www.w3.org/2000/svg" width="23.033" height="25.054" viewBox="0 0 23.033 25.054">
  <g id="Group_536" data-name="Group 536" transform="translate(-299.428 -517.473)">
    <path id="Path_338" data-name="Path 338" d="M319.459,521.435l-.7-.233a5.018,5.018,0,0,0-4.874-3.729h-2.335a10.054,10.054,0,0,0-5.477,1.617h-6.646v5.657h2.431a10.056,10.056,0,0,0-.411,2.829v5.657a2.833,2.833,0,0,0,2.586,2.817,8.082,8.082,0,0,0,15.842,0,2.832,2.832,0,0,0,2.585-2.817V525.6a4.383,4.383,0,0,0-3-4.165M300.236,519.9h5.657v4.041h-5.657Zm2.02,13.335a2.026,2.026,0,0,1,1.617-1.98v3.192c0,.261.015.518.039.772a2.022,2.022,0,0,1-1.656-1.984m16.972,1.212a7.273,7.273,0,1,1-14.547,0v-4.04h.808v1.212a2.023,2.023,0,0,0,2.021,2.02h2.02a2.023,2.023,0,0,0,2.021-2.02v-1.212h.808v1.212a2.022,2.022,0,0,0,2.02,2.02H316.4a2.022,2.022,0,0,0,2.02-2.02v-1.212h.808Zm-12.93-2.828V530a.4.4,0,0,1,.4-.4h3.637a.4.4,0,0,1,.4.4v1.617a1.213,1.213,0,0,1-1.212,1.212h-2.02a1.213,1.213,0,0,1-1.212-1.212m6.869,0V530a.4.4,0,0,1,.4-.4h3.637a.4.4,0,0,1,.4.4v1.617a1.214,1.214,0,0,1-1.212,1.212h-2.021a1.214,1.214,0,0,1-1.212-1.212m6.061-2.021h-.882a1.211,1.211,0,0,0-1.138-.808h-3.637a1.212,1.212,0,0,0-1.138.808h-.957a1.211,1.211,0,0,0-1.138-.808H306.7a1.212,1.212,0,0,0-1.138.808h-.882v-.4a2.833,2.833,0,0,1,2.829-2.829h1.616v1.617h.808v-1.617h3.3a8.92,8.92,0,0,0,4.367-1.142,3.78,3.78,0,0,1,1.626,3.095Zm.769,5.621c.025-.254.04-.511.04-.772v-3.192a2.019,2.019,0,0,1-.04,3.964m1.656-3.96a2.817,2.817,0,0,0-1.616-.82v-2.121a4.589,4.589,0,0,0-2.217-3.915l-.208-.125-.208.125a8.106,8.106,0,0,1-4.169,1.154h-3.3v-4.041H307.51v.809h1.616v3.232H307.51a3.642,3.642,0,0,0-3.637,3.637v1.245a2.826,2.826,0,0,0-1.617.82v-3.681a9.282,9.282,0,0,1,.447-2.829h4v-5.094a9.247,9.247,0,0,1,4.85-1.371h2.335a4.216,4.216,0,0,1,4.14,3.32l.049.224,1.129.376a3.577,3.577,0,0,1,2.449,3.4Z" fill="#007fc2"/>
    <path id="Path_339" data-name="Path 339" d="M311.954,538.486a4.046,4.046,0,0,1-4.041-4.041h-.808a4.849,4.849,0,0,0,9.7,0h-.808a4.046,4.046,0,0,1-4.041,4.041" fill="#007fc2"/>
  </g>
</svg>
