<svg xmlns="http://www.w3.org/2000/svg" width="28.8" height="28" viewBox="0 0 28.8 28">
  <path id="Контур_249" data-name="Контур 249" d="M1275.7,451.679h2.5a76.592,76.592,0,0,0,5,7.6l.8,1.1.8-1.1a76.592,76.592,0,0,0,5-7.6h2.5l3.3,10h-23.2Zm8.3-14a6.594,6.594,0,0,1,6.6,6.6c0,2.8-4.2,9.3-6.6,12.7-2.4-3.3-6.6-9.9-6.6-12.7a6.594,6.594,0,0,1,6.6-6.6m9.7,12h-2.8a14.815,14.815,0,0,0,1.7-5.4,8.6,8.6,0,1,0-17.2,0,14.815,14.815,0,0,0,1.7,5.4h-2.8l-4.7,14h28.8Zm-12.1-5.4a2.4,2.4,0,1,1,2.4,2.4,2.433,2.433,0,0,1-2.4-2.4m6.8,0a4.4,4.4,0,1,0-4.4,4.4,4.439,4.439,0,0,0,4.4-4.4" transform="translate(-1269.6 -435.679)" fill="#024b76"/>
</svg>
