<svg xmlns="http://www.w3.org/2000/svg" width="28.8" height="28" viewBox="0 0 28.8 28">
  <g id="Сгруппировать_535" data-name="Сгруппировать 535" transform="translate(-366.107 -968.396)">
    <g id="Сгруппировать_534" data-name="Сгруппировать 534">
      <g id="Сгруппировать_533" data-name="Сгруппировать 533">
        <g id="Сгруппировать_454" data-name="Сгруппировать 454">
          <path id="Контур_705" data-name="Контур 705" d="M372.207,984.4h2.5a76.581,76.581,0,0,0,5,7.6l.8,1.1.8-1.1a76.581,76.581,0,0,0,5-7.6h2.5l3.3,10h-23.2Zm8.3-14a6.594,6.594,0,0,1,6.6,6.6c0,2.8-4.2,9.3-6.6,12.7-2.4-3.3-6.6-9.9-6.6-12.7a6.594,6.594,0,0,1,6.6-6.6m9.7,12h-2.8a14.816,14.816,0,0,0,1.7-5.4,8.6,8.6,0,0,0-17.2,0,14.816,14.816,0,0,0,1.7,5.4h-2.8l-4.7,14h28.8Zm-12.1-5.4a2.4,2.4,0,1,1,2.4,2.4,2.433,2.433,0,0,1-2.4-2.4m6.8,0a4.4,4.4,0,1,0-4.4,4.4,4.439,4.439,0,0,0,4.4-4.4" fill="#fff"/>
        </g>
      </g>
    </g>
  </g>
</svg>
