<svg xmlns="http://www.w3.org/2000/svg" width="33.795" height="38.581" viewBox="0 0 33.795 38.581">
  <g id="Сгруппировать_537" data-name="Сгруппировать 537" transform="translate(-309.796 -837.302)">
    <path id="Контур_703" data-name="Контур 703" d="M319.655,854.422v-6.775a.555.555,0,0,1,.568-.568h13.063a.555.555,0,0,1,.568.568v6.775Zm11.927,6.978a1.785,1.785,0,1,1,1.785-1.785,1.8,1.8,0,0,1-1.785,1.785M321.4,869.92l1.5-3h7.668l1.5,3Zm-1.257-10.3a1.785,1.785,0,0,1,3.57,0,1.785,1.785,0,1,1-3.57,0m13.631,7.262a3.823,3.823,0,0,0,3.367-3.814V847.647a3.879,3.879,0,0,0-3.854-3.854H320.223a3.879,3.879,0,0,0-3.854,3.854v15.416a3.853,3.853,0,0,0,3.367,3.814l-3.448,6.937a1.409,1.409,0,0,0,.649,1.907,1.7,1.7,0,0,0,.649.162,1.4,1.4,0,0,0,1.258-.77l1.135-2.272h13.51l1.136,2.272a1.454,1.454,0,0,0,1.3.77,1.281,1.281,0,0,0,.649-.162,1.469,1.469,0,0,0,.649-1.907Z" fill="#007fc2"/>
    <path id="Контур_704" data-name="Контур 704" d="M335.517,837.3H317.991a8.2,8.2,0,0,0-8.2,8.2V868.7a1.42,1.42,0,0,0,2.84,0V845.5a5.307,5.307,0,0,1,5.315-5.315h17.485a5.307,5.307,0,0,1,5.314,5.315V868.7a1.42,1.42,0,0,0,2.84,0V845.5a8.044,8.044,0,0,0-8.073-8.2" fill="#007fc2"/>
  </g>
</svg>
