<svg xmlns="http://www.w3.org/2000/svg" width="18.718" height="17.769" viewBox="0 0 18.718 17.769">
  <path id="Контур_663" data-name="Контур 663" d="M399.58,820.949c-.228-.785-.134-1.067-.053-1.169a.3.3,0,0,1,.275-.1.184.184,0,0,0,.052-.005.118.118,0,0,0,.076-.153v-.017a1.558,1.558,0,0,1,.538-1.74c.712,1.61.145-.717,3.555-.463-.7,1.463,1.454-.339,1.968-.034a3.3,3.3,0,0,1,1.179,2.311.122.122,0,0,0,.129.107h.052a.265.265,0,0,1,.228.1c.076.1.175.384-.053,1.169a3.082,3.082,0,0,1-.379.915,6.555,6.555,0,0,1-2.96,1.232.652.652,0,0,0-.5-.238h-.245a.616.616,0,1,0,0,1.232h.245a.649.649,0,0,0,.52-.26,7.135,7.135,0,0,0,2.283-.706,3.683,3.683,0,0,1-2.067,1.881,2.682,2.682,0,0,1-1.734,0,3.851,3.851,0,0,1-2.4-2.87.115.115,0,0,0-.111-.1c-.07.011-.309-.085-.6-1.091m3.976,6.728a3.459,3.459,0,0,1-2.8-1.339,1.28,1.28,0,0,0,.613-.711,4.741,4.741,0,0,0,.929.457,3.894,3.894,0,0,0,2.51,0,4.408,4.408,0,0,0,.935-.452,1.274,1.274,0,0,0,.607.7,3.44,3.44,0,0,1-2.8,1.344m-8.711,3.039h17.428a.635.635,0,0,0,.642-.627c0-3.169-4.139-4.44-5.92-4.852a.048.048,0,0,1-.035-.045v-.673a5.1,5.1,0,0,0,.9-1.745,3.435,3.435,0,0,0,.782-1.531,2.424,2.424,0,0,0-.134-2.152l-.023-.028a4.461,4.461,0,0,0,.07-.548,3.96,3.96,0,0,0-.52-3.2,1.916,1.916,0,0,0-1.232-.672,2.786,2.786,0,0,0-2.989-1.649c-1.156.434-3.894.74-3.655.982-2.219.644-1.781,3.994-1.541,5.112l-.024.029a2.386,2.386,0,0,0-.134,2.152,3.536,3.536,0,0,0,.782,1.531,5.241,5.241,0,0,0,.9,1.734v.678a.043.043,0,0,1-.035.045c-1.781.395-5.92,1.666-5.92,4.841v.005a.638.638,0,0,0,.648.616" transform="translate(-394.197 -812.947)" fill="#007fc2"/>
</svg>
