<svg xmlns="http://www.w3.org/2000/svg" width="14.183" height="14.18" viewBox="0 0 14.183 14.18">
  <path id="Контур_247" data-name="Контур 247" d="M1332.9,392.514a2.4,2.4,0,0,1-1.348,1.348,30.8,30.8,0,0,1-8.36,0,2.393,2.393,0,0,1-1.348-1.348,30.9,30.9,0,0,1,0-8.359,2.4,2.4,0,0,1,1.348-1.348,30.8,30.8,0,0,1,8.36,0,2.392,2.392,0,0,1,1.348,1.348,30.9,30.9,0,0,1,0,8.359m1.512-7.1a3.927,3.927,0,0,0-4.116-4.117c-1.171-.066-4.68-.066-5.851,0a3.923,3.923,0,0,0-4.116,4.114c-.067,1.17-.067,4.679,0,5.85a3.927,3.927,0,0,0,4.116,4.117c1.171.066,4.68.066,5.851,0a3.927,3.927,0,0,0,4.116-4.117c.066-1.171.066-4.676,0-5.847M1332,384.55a.848.848,0,1,0-.848.848.848.848,0,0,0,.848-.848m-4.632,6.148a2.363,2.363,0,1,1,2.364-2.363,2.368,2.368,0,0,1-2.364,2.363m0-6a3.635,3.635,0,1,0,3.635,3.636,3.629,3.629,0,0,0-3.635-3.636" transform="translate(-1320.279 -381.245)" fill="#024b76"/>
</svg>
