<svg xmlns="http://www.w3.org/2000/svg" width="166" height="38.336" viewBox="0 0 166 38.336">
  <g id="Сгруппировать_542" data-name="Сгруппировать 542" transform="translate(-387 -326.1)">
    <path id="Контур_236" data-name="Контур 236" d="M432.887,349.272a19.191,19.191,0,0,1,9.277,10.127c.082.16.163.321.241.483.5,1.034,1.285.633,1.562.171A19.2,19.2,0,0,0,446.1,345.4q-.1-.36-.227-.713l-.105-.026c-2.3-.814-5.36.04-8.718,1.946q-.92.523-1.867,1.147-1.148.756-2.3,1.522" fill="#024b76"/>
    <path id="Контур_237" data-name="Контур 237" d="M400.8,337.881l-.116-.073A19.183,19.183,0,0,1,391.131,327a.8.8,0,0,0-1.387.12,19.2,19.2,0,0,0-2.132,14.657c.078.272.166.541.261.808,2.289.78,5.331-.075,8.661-1.965q.921-.523,1.868-1.148c.8-.525,1.6-1.057,2.395-1.588" fill="#024b76"/>
    <path id="Контур_238" data-name="Контур 238" d="M417.267,356.571a27.415,27.415,0,0,1-4.14.839c-9.966,1.215-21.755-2.024-25.01-13.523,2.295.814,5.36-.04,8.717-1.946.613-.348,1.237-.732,1.867-1.147,4.729-3.114,9.431-6.423,14.579-8.766a34.215,34.215,0,0,1,3.23-1.273,27.425,27.425,0,0,1,4.139-.84c9.714-1.188,21.755,2.025,25.012,13.523-2.3-.814-5.361.04-8.718,1.946q-.92.523-1.867,1.147c-4.729,3.114-9.431,6.423-14.58,8.766a34.107,34.107,0,0,1-3.229,1.274m10.439-13.491a10.633,10.633,0,1,0-10.034,11.2,10.633,10.633,0,0,0,10.034-11.2" fill="#024b76"/>
    <path id="Контур_239" data-name="Контур 239" d="M424.624,343.209a7.51,7.51,0,0,0-1.378-3.951,2.858,2.858,0,1,1-4.814-3.062,7.546,7.546,0,1,0,6.192,7.013" fill="#024b76"/>
    <path id="Контур_240" data-name="Контур 240" d="M466.91,336.536h1.265v-2.721h-.817V326.1h-1.29v7.715H463.59V326.1H462.3v8.941h4.611Zm3.692-2.709v-2.733h2.848v-1.187H470.6v-2.593h3.091V326.1h-4.381v8.941h4.509v-1.214Zm8.417-7.727v3.807H476.49V326.1H475.2v8.941h1.29V331.12h2.529v3.921h1.29V326.1Zm7.433,0H481.42v1.227h1.852v7.714h1.316v-7.714h1.864Zm3.4,0h-2.363v8.941h1.29V331.9h1.073c1.75,0,2.746-1.035,2.746-2.912a2.567,2.567,0,0,0-2.746-2.887m-.013,4.573h-1.06v-3.346h1.06c.971,0,1.443.562,1.443,1.66,0,1.149-.472,1.686-1.443,1.686m-24.153,28.961A1.83,1.83,0,0,0,467,357.7a2.371,2.371,0,0,0-2.542-2.555c-1.66,0-2.541,1.112-2.631,2.747H463.1c.052-.895.422-1.508,1.354-1.508a1.161,1.161,0,0,1,1.239,1.3c0,.971-.549,1.4-1.481,1.4h-.562v1.15h.676a1.421,1.421,0,0,1,1.6,1.481,1.381,1.381,0,0,1-1.469,1.469,1.442,1.442,0,0,1-1.481-1.481h-1.3a2.7,2.7,0,0,0,2.8,2.72,2.558,2.558,0,0,0,2.759-2.644,1.99,1.99,0,0,0-1.546-2.158m5.084-4.3H468.4v8.941h1.29v-3.142h1.073c1.75,0,2.746-1.035,2.746-2.912a2.567,2.567,0,0,0-2.746-2.887m-.013,4.573H469.7v-3.347h1.06c.971,0,1.443.562,1.443,1.661,0,1.149-.472,1.686-1.443,1.686m5.147,3.154v-2.733h2.849v-1.188H475.9v-2.593h3.091v-1.213h-4.381v8.941h4.509v-1.214Zm8.417-7.727v3.806H481.79v-3.806H480.5v8.941h1.29v-3.922h2.529v3.922h1.29v-8.941Zm3.079,8.941h1.3l2.159-4.892c.217-.5.473-1.188.639-1.648l.038.026c-.064.741-.115,1.941-.115,2.618v3.9h1.264v-8.941H491.37l-2.171,4.93c-.243.524-.473,1.15-.639,1.584l-.038-.025c.089-.779.14-1.942.14-2.581v-3.908H487.4Zm6.4,0h1.43l1.788-3.231h.792v3.231h1.29v-8.941h-2.3c-1.673,0-2.669,1.048-2.669,2.874a2.512,2.512,0,0,0,1.6,2.618Zm3-4.445c-.881,0-1.354-.588-1.354-1.648s.473-1.622,1.367-1.622h1v3.27Z" fill="#024b76"/>
    <path id="Контур_241" data-name="Контур 241" d="M553,352.467H459.2V337.9H553Zm-86.931-7.822a2.2,2.2,0,0,0,.907-1.916A2.241,2.241,0,0,0,464.6,340.3h-2.427v8.941h2.554a2.388,2.388,0,0,0,2.581-2.555,2.1,2.1,0,0,0-1.239-2.043m-1.622-3.13c.83,0,1.213.409,1.213,1.252,0,.869-.4,1.316-1.175,1.316h-1.022v-2.568Zm.115,6.514h-1.1V345.3h1.048a1.309,1.309,0,0,1,1.481,1.392c0,.907-.486,1.341-1.43,1.341m6.552,1.38c1.712,0,2.733-1.137,2.733-3v-3.27c0-1.864-1.021-3-2.733-3s-2.733,1.137-2.733,3v3.27c0,1.865,1.021,3,2.733,3m0-1.265c-.933,0-1.4-.613-1.4-1.737v-3.27c0-1.124.472-1.737,1.4-1.737s1.4.613,1.4,1.737v3.27c0,1.124-.486,1.737-1.4,1.737m6.6,1.252a2.531,2.531,0,0,0,2.695-2.733h-1.277c-.09,1.022-.549,1.507-1.418,1.507-.779,0-1.277-.5-1.277-1.558v-3.679c0-1.073.5-1.571,1.252-1.571.855,0,1.315.473,1.392,1.52h1.277c-.077-1.775-1.034-2.746-2.657-2.746a2.468,2.468,0,0,0-2.58,2.8v3.679a2.472,2.472,0,0,0,2.593,2.784m6.284,0a2.531,2.531,0,0,0,2.7-2.733h-1.277c-.09,1.022-.549,1.507-1.418,1.507-.779,0-1.277-.5-1.277-1.558v-3.679c0-1.073.5-1.571,1.251-1.571.856,0,1.316.473,1.393,1.52h1.277c-.077-1.775-1.034-2.746-2.656-2.746a2.468,2.468,0,0,0-2.581,2.8v3.679A2.472,2.472,0,0,0,484,349.4m8.29-9.094h-5.033v1.226h1.852v7.715h1.316v-7.715h1.865Zm4.368,8.941H498l-2.248-8.941H494.36l-2.248,8.941h1.354l.409-1.8h2.362Zm-2.5-3,.55-2.4c.14-.588.268-1.443.331-1.916h.039c.064.473.2,1.328.332,1.916l.562,2.4Zm8.66-5.939v3.806h-2.529V340.3H499v8.941h1.29v-3.922h2.529v3.922h1.29V340.3Zm5.556,9.107c1.712,0,2.734-1.137,2.734-3v-3.27c0-1.864-1.022-3-2.734-3s-2.733,1.137-2.733,3v3.27c0,1.865,1.022,3,2.733,3m0-1.265c-.932,0-1.4-.613-1.4-1.737v-3.27c0-1.124.473-1.737,1.4-1.737s1.4.613,1.4,1.737v3.27c0,1.124-.485,1.737-1.4,1.737m8.162-3.5a2.2,2.2,0,0,0,.907-1.916,2.241,2.241,0,0,0-2.376-2.427h-2.427v8.941h2.554a2.388,2.388,0,0,0,2.581-2.555,2.1,2.1,0,0,0-1.239-2.043m-1.622-3.13c.83,0,1.213.409,1.213,1.252,0,.869-.4,1.316-1.175,1.316h-1.022v-2.568Zm.115,6.514h-1.1V345.3h1.047a1.309,1.309,0,0,1,1.482,1.392c0,.907-.485,1.341-1.43,1.341m4.547-7.727c-.154,3.691-.269,5.7-.409,6.629s-.422,1.264-.984,1.264v1.175c1.239,0,1.993-.523,2.223-2.145.166-1.061.281-3.1.408-5.71H522.7v7.728h1.29V340.3Zm7.5,7.727V345.3h2.848v-1.188H527.07v-2.593h3.091V340.3H525.78v8.941h4.509v-1.214Zm8.417-7.727v3.806h-2.529V340.3h-1.29v8.941h1.29v-3.922h2.529v3.922h1.29V340.3Zm3.078,8.941h1.3l2.158-4.892c.218-.5.473-1.188.639-1.648l.038.026c-.063.741-.114,1.941-.114,2.618v3.9h1.264V340.3h-1.315l-2.172,4.93c-.242.524-.472,1.149-.639,1.584l-.038-.025c.09-.78.141-1.942.141-2.581V340.3h-1.265Zm6.4,0H546.4l1.788-3.232h.792v3.232h1.29V340.3h-2.3c-1.673,0-2.67,1.048-2.67,2.874a2.514,2.514,0,0,0,1.6,2.618Zm3-4.445c-.881,0-1.354-.588-1.354-1.648s.473-1.622,1.367-1.622h1v3.27Z" fill="#024b76"/>
  </g>
</svg>
