<svg xmlns="http://www.w3.org/2000/svg" xmlns:xlink="http://www.w3.org/1999/xlink" width="235.062" height="52.847" viewBox="0 0 235.062 52.847">
  <defs>
    <clipPath id="clip-path">
      <rect id="SVGID" width="137.062" height="21.288" fill="none"/>
    </clipPath>
    <linearGradient id="linear-gradient" x1="0.309" y1="1.697" x2="0.64" y2="-0.377" gradientUnits="objectBoundingBox">
      <stop offset="0" stop-color="#df7fb1"/>
      <stop offset="1" stop-color="#007fc3"/>
    </linearGradient>
    <clipPath id="clip-path-2">
      <path id="SVGID-2" data-name="SVGID" d="M320.1,294.9c-.527,2.46-4.932,6.355-10.227,9.031a61.826,61.826,0,0,0-6.5,3.757c7.129,2.543,14.043,8.983,17.707,16.529.664,1.366,1.7.836,2.063.225a25.346,25.346,0,0,0,2.815-19.354c-1.142-3.949-3.677-7.435-5.853-10.189" transform="translate(-303.364 -294.903)" fill="none" clip-rule="evenodd"/>
    </clipPath>
    <linearGradient id="linear-gradient-2" x1="0.606" y1="0.978" x2="0.462" y2="0.33" gradientUnits="objectBoundingBox">
      <stop offset="0" stop-color="#0070ae"/>
      <stop offset="1" stop-color="#003c5e"/>
    </linearGradient>
    <clipPath id="clip-path-3">
      <path id="SVGID-3" data-name="SVGID" d="M198.975,302.328c.527-2.46,4.932-6.355,10.227-9.031a61.776,61.776,0,0,0,6.5-3.758C208.578,287,201.663,280.556,198,273.01c-.663-1.366-1.7-.836-2.063-.225a25.348,25.348,0,0,0-2.815,19.354c1.142,3.949,3.677,7.435,5.853,10.189" transform="translate(-192.315 -272.152)" fill="none" clip-rule="evenodd"/>
    </clipPath>
    <linearGradient id="linear-gradient-3" x1="-0.174" y1="0.096" x2="0.587" y2="0.552" gradientUnits="objectBoundingBox">
      <stop offset="0" stop-color="#dd7fb1"/>
      <stop offset="1" stop-color="#a63480"/>
    </linearGradient>
    <clipPath id="clip-path-4">
      <path id="SVGID-4" data-name="SVGID" d="M232.995,312.263a36.113,36.113,0,0,1-5.466,1.109c-13.161,1.6-28.728-2.674-33.027-17.857,3.03,1.075,7.078-.053,11.511-2.57q1.216-.69,2.466-1.515c6.244-4.112,12.454-8.481,19.253-11.575A44.683,44.683,0,0,1,232,278.173a36.3,36.3,0,0,1,5.466-1.109c12.828-1.569,28.728,2.674,33.027,17.857-3.03-1.075-7.078.053-11.511,2.57q-1.215.69-2.466,1.515c-6.244,4.112-12.453,8.481-19.252,11.575a44.734,44.734,0,0,1-4.265,1.682" transform="translate(-194.502 -276.758)" fill="none" clip-rule="evenodd"/>
    </clipPath>
    <linearGradient id="linear-gradient-4" x1="0.228" y1="0.857" x2="0.934" y2="-0.071" xlink:href="#linear-gradient"/>
    <clipPath id="clip-path-5">
      <path id="SVGID-5" data-name="SVGID" d="M271.772,303.29a9.964,9.964,0,1,0-9.4,10.5,9.964,9.964,0,0,0,9.4-10.5" transform="translate(-251.858 -293.871)" fill="none" clip-rule="evenodd"/>
    </clipPath>
    <linearGradient id="linear-gradient-5" x1="0.485" y1="0.694" x2="0.547" y2="-0.121" xlink:href="#linear-gradient-2"/>
  </defs>
  <g id="logo" transform="translate(-192.315 -260.511)">
    <g id="Сгруппировать_2" data-name="Сгруппировать 2" transform="translate(290.315 276.837)">
      <g id="Сгруппировать_1" data-name="Сгруппировать 1" transform="translate(0 0)" clip-path="url(#clip-path)">
        <rect id="Прямоугольник_1" data-name="Прямоугольник 1" width="137.062" height="21.288" fill="url(#linear-gradient)"/>
      </g>
    </g>
    <path id="Контур_4" data-name="Контур 4" d="M436.665,306.621c-1.288,0-1.978-.859-1.978-2.408,0-1.568.69-2.37,2-2.37h1.455v4.778Zm-4.386,6.495h2.09l2.613-4.722h1.157v4.722h1.885V300.051h-3.359c-2.445,0-3.9,1.531-3.9,4.2,0,1.941.84,3.322,2.333,3.826Zm-9.351,0h1.9l3.154-7.148c.317-.728.691-1.736.933-2.408l.056.037c-.094,1.082-.168,2.837-.168,3.826v5.692h1.848V300.051h-1.922l-3.173,7.2c-.355.766-.691,1.68-.933,2.315l-.056-.037c.131-1.139.206-2.836.206-3.77v-5.711h-1.848Zm-4.5-13.065v5.562h-3.7v-5.562H412.85v13.065h1.885v-5.73h3.7v5.73h1.885V300.051Zm-12.3,11.292v-3.994h4.162v-1.736h-4.162v-3.789h4.517v-1.773h-6.4v13.065h6.589v-1.773Zm-7.521-4.61h-1.549v-4.89h1.549c1.418,0,2.109.822,2.109,2.427C400.719,305.949,400.029,306.733,398.61,306.733Zm.019-6.682h-3.453v13.065h1.885v-4.591h1.568c2.556,0,4.012-1.512,4.012-4.255C402.641,301.6,401.185,300.051,398.629,300.051Zm-7.429,6.29a2.673,2.673,0,0,0,1.922-2.819,3.464,3.464,0,0,0-3.714-3.732c-2.427,0-3.714,1.623-3.845,4.012h1.866c.075-1.307.616-2.2,1.979-2.2a1.7,1.7,0,0,1,1.81,1.9c0,1.418-.8,2.053-2.165,2.053h-.821v1.68h.989a2.077,2.077,0,0,1,2.333,2.165,2.017,2.017,0,0,1-2.146,2.146,2.108,2.108,0,0,1-2.165-2.165h-1.9a3.948,3.948,0,0,0,4.088,3.975,3.738,3.738,0,0,0,4.031-3.863A2.91,2.91,0,0,0,391.2,306.341Zm35.293-39.149h-1.549V262.3h1.549c1.419,0,2.109.822,2.109,2.427C428.6,266.408,427.912,267.192,426.493,267.192Zm.019-6.681h-3.453v13.065h1.885v-4.592h1.568c2.557,0,4.013-1.512,4.013-4.255C430.524,262.06,429.069,260.511,426.512,260.511Zm-4.964,0h-7.354V262.3H416.9v11.273h1.922V262.3h2.725Zm-10.863,0v5.562h-3.7v-5.562h-1.885v13.065h1.885v-5.73h3.7v5.73h1.885V260.511Zm-12.3,11.291v-3.994h4.162v-1.735h-4.162v-3.789H402.9v-1.773h-6.4v13.065h6.589V271.8Zm-5.394,3.957h1.848v-3.975h-1.194V260.511h-1.885v11.272H388.14V260.511h-1.885v13.065h6.738Z" transform="translate(-91.411)" fill="#3b3a39"/>
    <path id="Контур_5" data-name="Контур 5" d="M512.182,307.046c-1.287,0-1.978-.859-1.978-2.408,0-1.568.691-2.37,2-2.37h1.456v4.778Zm-4.386,6.495h2.091l2.613-4.722h1.157v4.722h1.885V300.477h-3.359c-2.445,0-3.9,1.531-3.9,4.2,0,1.941.84,3.322,2.333,3.826Zm-9.35,0h1.9l3.154-7.148c.318-.728.691-1.736.934-2.408l.056.037c-.093,1.083-.168,2.837-.168,3.827v5.692h1.847V300.477H504.25l-3.172,7.2c-.355.766-.691,1.68-.933,2.315l-.056-.037c.131-1.139.205-2.837.205-3.77v-5.711h-1.847Zm-4.5-13.065v5.562h-3.7v-5.562h-1.885v13.065h1.885v-5.73h3.7v5.73h1.884V300.477Zm-12.3,11.291v-3.994h4.162v-1.735h-4.162V302.25h4.517v-1.773h-6.4v13.065h6.588v-1.773Zm-10.955-11.291c-.224,5.394-.392,8.324-.6,9.686-.205,1.344-.616,1.847-1.437,1.847v1.717c1.81,0,2.911-.765,3.247-3.135.243-1.549.41-4.535.6-8.342h2.762v11.291h1.885V300.477Zm-6.645,11.291h-1.6v-3.994h1.531a1.913,1.913,0,0,1,2.165,2.034C466.139,311.133,465.43,311.768,464.049,311.768Zm-.168-9.518c1.213,0,1.773.6,1.773,1.829,0,1.269-.579,1.922-1.718,1.922h-1.493V302.25Zm2.37,4.572a3.217,3.217,0,0,0,1.325-2.8,3.274,3.274,0,0,0-3.471-3.546h-3.546v13.065h3.733a3.49,3.49,0,0,0,3.77-3.733A3.068,3.068,0,0,0,466.251,306.823Zm-11.926,5.114c-1.362,0-2.053-.9-2.053-2.538V304.62c0-1.642.691-2.538,2.053-2.538,1.344,0,2.053.9,2.053,2.538V309.4C456.378,311.04,455.669,311.936,454.325,311.936Zm0,1.848c2.5,0,3.994-1.661,3.994-4.386V304.62c0-2.725-1.493-4.386-3.994-4.386s-3.994,1.661-3.994,4.386V309.4C450.331,312.123,451.825,313.784,454.325,313.784Zm-8.118-13.307v5.562h-3.7v-5.562h-1.885v13.065h1.885v-5.73h3.7v5.73h1.884V300.477Zm-12.654,8.679.8-3.509c.205-.858.392-2.109.485-2.8h.056c.093.691.3,1.941.485,2.8l.821,3.509Zm3.658,4.386h1.96l-3.285-13.065h-2.034l-3.284,13.065h1.978l.6-2.632H436.6Zm-6.382-13.065h-7.354v1.792h2.706v11.273H428.1V302.268h2.725Zm-12.113,13.289c2.407,0,3.807-1.418,3.938-3.994h-1.866c-.131,1.493-.8,2.2-2.071,2.2-1.139,0-1.867-.728-1.867-2.277v-5.375c0-1.568.728-2.3,1.829-2.3,1.251,0,1.922.691,2.034,2.221h1.867c-.112-2.594-1.511-4.013-3.882-4.013-2.3,0-3.77,1.437-3.77,4.087V309.7C414.927,312.328,416.42,313.765,418.716,313.765Zm-9.182,0c2.407,0,3.807-1.418,3.938-3.994H411.6c-.131,1.493-.8,2.2-2.071,2.2-1.139,0-1.867-.728-1.867-2.277v-5.375c0-1.568.728-2.3,1.829-2.3,1.251,0,1.922.691,2.034,2.221H413.4c-.112-2.594-1.511-4.013-3.882-4.013-2.3,0-3.77,1.437-3.77,4.087V309.7C405.745,312.328,407.238,313.765,409.534,313.765Zm-9.649-1.829c-1.362,0-2.053-.9-2.053-2.538V304.62c0-1.642.691-2.538,2.053-2.538,1.344,0,2.053.9,2.053,2.538V309.4C401.937,311.04,401.228,311.936,399.884,311.936Zm0,1.848c2.5,0,3.994-1.661,3.994-4.386V304.62c0-2.725-1.493-4.386-3.994-4.386s-3.994,1.661-3.994,4.386V309.4C395.89,312.123,397.384,313.784,399.884,313.784Zm-9.574-2.016H388.7v-3.994h1.531a1.913,1.913,0,0,1,2.165,2.034C392.4,311.133,391.691,311.768,390.31,311.768Zm-.168-9.518c1.214,0,1.773.6,1.773,1.829,0,1.269-.579,1.922-1.717,1.922H388.7V302.25Zm2.371,4.572a3.218,3.218,0,0,0,1.325-2.8,3.274,3.274,0,0,0-3.472-3.546H386.82v13.065h3.733a3.489,3.489,0,0,0,3.77-3.733A3.068,3.068,0,0,0,392.513,306.823Z" transform="translate(-92.161 -20.128)" fill="#fff"/>
    <g id="Сгруппировать_4" data-name="Сгруппировать 4" transform="translate(247.095 277.477)">
      <g id="Сгруппировать_3" data-name="Сгруппировать 3" clip-path="url(#clip-path-2)">
        <rect id="Прямоугольник_2" data-name="Прямоугольник 2" width="24.182" height="30.683" transform="translate(0 0)" fill="url(#linear-gradient-2)"/>
      </g>
    </g>
    <g id="Сгруппировать_6" data-name="Сгруппировать 6" transform="translate(192.315 266.254)">
      <g id="Сгруппировать_5" data-name="Сгруппировать 5" transform="translate(0 0)" clip-path="url(#clip-path-3)">
        <rect id="Прямоугольник_3" data-name="Прямоугольник 3" width="24.182" height="30.683" transform="translate(-0.79 -0.508)" fill="url(#linear-gradient-3)"/>
      </g>
    </g>
    <g id="Сгруппировать_8" data-name="Сгруппировать 8" transform="translate(193.394 268.525)">
      <g id="Сгруппировать_7" data-name="Сгруппировать 7" transform="translate(0)" clip-path="url(#clip-path-4)">
        <rect id="Прямоугольник_4" data-name="Прямоугольник 4" width="75.987" height="39.481" transform="translate(0 -1.263)" fill="url(#linear-gradient-4)"/>
      </g>
    </g>
    <path id="Контур_6" data-name="Контур 6" d="M271.655,298.987a14.041,14.041,0,1,0-13.25,14.789,14.04,14.04,0,0,0,13.25-14.789" transform="translate(-25.983 -12.771)" fill="#fff" fill-rule="evenodd"/>
    <g id="Сгруппировать_10" data-name="Сгруппировать 10" transform="translate(221.688 276.968)">
      <g id="Сгруппировать_9" data-name="Сгруппировать 9" transform="translate(0 0)" clip-path="url(#clip-path-5)">
        <rect id="Прямоугольник_5" data-name="Прямоугольник 5" width="20.502" height="20.502" transform="translate(-0.287 -0.286)" fill="url(#linear-gradient-5)"/>
      </g>
    </g>
    <path id="Контур_7" data-name="Контур 7" d="M281.732,294.607a3.774,3.774,0,1,0-3.561,3.975,3.774,3.774,0,0,0,3.561-3.975" transform="translate(-41.486 -15.469)" fill="#fff" fill-rule="evenodd"/>
  </g>
</svg>
