<svg xmlns="http://www.w3.org/2000/svg" width="16.7" height="11.873" viewBox="0 0 16.7 11.873">
  <path id="Контур_662" data-name="Контур 662" d="M1303.955,816.852l6.7,5.209,6.7-5.209a.28.28,0,0,0-.041,0h-13.318A.268.268,0,0,0,1303.955,816.852Zm10.787,3.238,3.307,5.453v-7.956c0-.023,0-.045,0-.067Zm-7.3.681-3.785,5.959a.724.724,0,0,0,.337.083h13.318a.727.727,0,0,0,.343-.086l-3.67-6.049-3.031,2.357a.478.478,0,0,1-.594.005Zm-4.184,4.808,3.427-5.395-3.424-2.664c0,.022,0,.044,0,.067Zm.736-9.684h13.318a1.7,1.7,0,0,1,1.691,1.692v8.49a1.7,1.7,0,0,1-1.691,1.691h-13.318a1.7,1.7,0,0,1-1.691-1.691v-8.49a1.7,1.7,0,0,1,1.691-1.692" transform="translate(-1302.304 -815.895)" fill="#007fc2"/>
</svg>
