<svg xmlns="http://www.w3.org/2000/svg" width="24.898" height="24.65" viewBox="0 0 24.898 24.65">
  <g id="Group_535" data-name="Group 535" transform="translate(-656.599 -537.915)">
    <path id="Path_334" data-name="Path 334" d="M530.118,523.241a3.181,3.181,0,1,0-3.181,3.18,3.185,3.185,0,0,0,3.181-3.18m-3.181,2.385a2.385,2.385,0,1,1,2.386-2.385,2.388,2.388,0,0,1-2.386,2.385" transform="translate(142.111 20.24)" fill="#007fc2"/>
    <path id="Path_335" data-name="Path 335" d="M526.937,536.361c-5.219,0-7.276,1.2-7.362,1.25l-.192.116v.225c0,2.422,4.132,4.373,7.554,4.373s7.554-1.951,7.554-4.373v-.225l-.192-.116c-.086-.051-2.143-1.25-7.362-1.25m0,.8a19.433,19.433,0,0,1,6.146.8,24.392,24.392,0,0,1-12.292,0,19.438,19.438,0,0,1,6.146-.8m0,4.373c-3.248,0-5.813-1.539-6.544-2.865a24.853,24.853,0,0,0,13.088,0c-.73,1.326-3.3,2.865-6.544,2.865" transform="translate(142.111 20.24)" fill="#007fc2"/>
    <rect id="Rectangle_98" data-name="Rectangle 98" width="0.796" height="1.59" transform="translate(667.061 554.216)" fill="#007fc2"/>
    <path id="Path_336" data-name="Path 336" d="M524.949,532.385v.795h.795v-1.59H524.2l2.739-3.348,2.74,3.348H528.13v2.385h.8v-1.59h2.429l-4.417-5.4-4.417,5.4Z" transform="translate(142.111 20.24)" fill="#007fc2"/>
    <rect id="Rectangle_99" data-name="Rectangle 99" width="0.796" height="0.795" transform="translate(670.242 555.011)" fill="#007fc2"/>
    <path id="Path_337" data-name="Path 337" d="M539.168,522.984a16.744,16.744,0,0,0-24.462,0l-.218.257.218.257a16.8,16.8,0,0,0,9.628,5.1l.226.036.731-.9-.45-.221a4.77,4.77,0,1,1,4.192,0l-.45.221.731.894.226-.036a16.8,16.8,0,0,0,9.628-5.1l.218-.257Zm-17.8.257a5.521,5.521,0,0,0,2.158,4.4,16.525,16.525,0,0,1-7.977-4.4,16.478,16.478,0,0,1,7.976-4.4,5.556,5.556,0,0,0-2.157,4.4m8.974,4.4a5.562,5.562,0,0,0,0-8.794,16.554,16.554,0,0,1,7.974,4.4,16.467,16.467,0,0,1-7.978,4.4" transform="translate(142.111 20.24)" fill="#007fc2"/>
  </g>
</svg>
