<svg xmlns="http://www.w3.org/2000/svg" width="16.925" height="14.13" viewBox="0 0 16.925 14.13">
  <path id="Path_490" data-name="Path 490" d="M350.886,692.334h2.164l8.069-13.776h-2.165Zm9.062-1.954a1.6,1.6,0,0,1-.4-1.159v-.662a1.6,1.6,0,0,1,.4-1.159,1.422,1.422,0,0,1,1.073-.419,1.4,1.4,0,0,1,1.053.419,1.6,1.6,0,0,1,.4,1.159v.662a1.6,1.6,0,0,1-.4,1.159,1.4,1.4,0,0,1-1.053.419,1.423,1.423,0,0,1-1.073-.419m2.49,1.885a3.256,3.256,0,0,0,1.082-.679,2.962,2.962,0,0,0,.7-1.033,3.472,3.472,0,0,0,.246-1.329v-.669a3.471,3.471,0,0,0-.246-1.328,2.962,2.962,0,0,0-.7-1.033,3.257,3.257,0,0,0-1.082-.679,4.2,4.2,0,0,0-2.834,0,3.262,3.262,0,0,0-1.083.679,2.974,2.974,0,0,0-.7,1.033,3.471,3.471,0,0,0-.246,1.328v.669a3.472,3.472,0,0,0,.246,1.329,2.973,2.973,0,0,0,.7,1.033,3.261,3.261,0,0,0,1.083.679,4.2,4.2,0,0,0,2.834,0m-12.527-8.773a1.6,1.6,0,0,1-.4-1.159v-.662a1.6,1.6,0,0,1,.4-1.159,1.422,1.422,0,0,1,1.073-.419,1.4,1.4,0,0,1,1.053.419,1.6,1.6,0,0,1,.4,1.159v.662a1.6,1.6,0,0,1-.4,1.159,1.4,1.4,0,0,1-1.053.419,1.423,1.423,0,0,1-1.073-.419m2.49,1.885a3.256,3.256,0,0,0,1.082-.679,2.962,2.962,0,0,0,.7-1.033,3.472,3.472,0,0,0,.246-1.329v-.669a3.471,3.471,0,0,0-.246-1.328,2.962,2.962,0,0,0-.7-1.033,3.256,3.256,0,0,0-1.082-.679,4.2,4.2,0,0,0-2.834,0,3.247,3.247,0,0,0-1.082.679,2.962,2.962,0,0,0-.7,1.033,3.471,3.471,0,0,0-.246,1.328v.669a3.472,3.472,0,0,0,.246,1.329,2.962,2.962,0,0,0,.7,1.033,3.247,3.247,0,0,0,1.082.679,4.2,4.2,0,0,0,2.834,0" transform="translate(-347.54 -678.381)" fill="#1b5d84"/>
</svg>
