<svg xmlns="http://www.w3.org/2000/svg" width="32" height="32" viewBox="0 0 32 32">
  <g id="Сгруппировать_455" data-name="Сгруппировать 455" transform="translate(-365.107 -1116.86)">
    <circle id="Эллипс_115" data-name="Эллипс 115" cx="15" cy="15" r="15" transform="translate(366.107 1117.86)" fill="none" stroke="#fff" stroke-width="2"/>
    <path id="Контур_706" data-name="Контур 706" d="M389.676,1137.918a2.021,2.021,0,0,1-.58,1.391l-1.449,1.45a2.025,2.025,0,0,1-1.392.58.987.987,0,0,1-.406-.058l-.174-.058a16.963,16.963,0,0,1-13.045-12.814l-.058-.173a2.043,2.043,0,0,1,.522-1.8l1.45-1.449a1.894,1.894,0,0,1,2.783,0l1.449,1.391a2,2,0,0,1,0,2.783l-.406.464a.909.909,0,0,0-.174.928,12.784,12.784,0,0,0,5.218,5.16.724.724,0,0,0,.928-.174l.406-.464a1.994,1.994,0,0,1,2.783,0l1.449,1.449a2.29,2.29,0,0,1,.7,1.392" fill="#fff"/>
  </g>
</svg>
