<svg xmlns="http://www.w3.org/2000/svg" xmlns:xlink="http://www.w3.org/1999/xlink" width="22.758" height="22.565" viewBox="0 0 22.758 22.565">
  <defs>
    <clipPath id="clip-path">
      <path id="Контур_47" data-name="Контур 47" d="M0,0H22.758V-22.565H0Z" fill="#fff"/>
    </clipPath>
  </defs>
  <g id="Сгруппировать_65" data-name="Сгруппировать 65" transform="translate(0 22.565)">
    <g id="Сгруппировать_64" data-name="Сгруппировать 64" clip-path="url(#clip-path)">
      <g id="Сгруппировать_63" data-name="Сгруппировать 63" transform="translate(22.758 -4.573)">
        <path id="Контур_46" data-name="Контур 46" d="M0,0A2.58,2.58,0,0,1-.771,1.843L-2.7,3.8a2.57,2.57,0,0,1-1.843.771A2.592,2.592,0,0,1-5.1,4.518L-5.3,4.472A22.8,22.8,0,0,1-22.646-12.661l-.047-.224a2.569,2.569,0,0,1,.687-2.39l1.927-1.958a2.606,2.606,0,0,1,3.678,0l1.936,1.9a2.607,2.607,0,0,1,0,3.678l-.571.578a1.034,1.034,0,0,0-.193,1.226,16.96,16.96,0,0,0,6.94,6.878,1.065,1.065,0,0,0,1.265-.192l.57-.579a2.615,2.615,0,0,1,3.678,0L-.825-1.812A2.62,2.62,0,0,1,0,0" fill="#fff"/>
      </g>
    </g>
  </g>
</svg>
