<svg xmlns="http://www.w3.org/2000/svg" width="22.938" height="18.031" viewBox="0 0 22.938 18.031">
  <g id="Group_536" data-name="Group 536" transform="translate(-1305.149 -1031.974)">
    <path id="Path_528" data-name="Path 528" d="M1510.976,566.426a1.233,1.233,0,1,1-1.233,1.234,1.234,1.234,0,0,1,1.233-1.234" transform="translate(-201.5 470.526)" fill="#007fc2"/>
    <path id="Path_529" data-name="Path 529" d="M1527.919,576.385a1.454,1.454,0,0,1-1.45,1.45h-16.7a1.454,1.454,0,0,1-1.45-1.45v-9.91a1.455,1.455,0,0,1,1.45-1.45h2.949a.875.875,0,0,0,.749-.459l.459-.919a.861.861,0,0,1,.774-.483h6.84a.863.863,0,0,1,.774.483l.459.919a.83.83,0,0,0,.749.459h2.949a1.455,1.455,0,0,1,1.45,1.45Zm-1.426-13.052h-2.441l-.218-.459a2.543,2.543,0,0,0-2.272-1.426h-6.84a2.517,2.517,0,0,0-2.272,1.426l-.217.459h-2.466a3.126,3.126,0,0,0-3.118,3.118v9.91a3.126,3.126,0,0,0,3.118,3.118h16.7a3.126,3.126,0,0,0,3.118-3.118v-9.91a3.09,3.09,0,0,0-3.094-3.118" transform="translate(-201.5 470.526)" fill="#007fc2"/>
    <path id="Path_530" data-name="Path 530" d="M1518.13,574.354a3.493,3.493,0,1,1,3.505-3.48,3.507,3.507,0,0,1-3.505,3.48m0-8.677a5.185,5.185,0,1,0,5.172,5.2,5.178,5.178,0,0,0-5.172-5.2" transform="translate(-201.5 470.526)" fill="#007fc2"/>
  </g>
</svg>
