<svg xmlns="http://www.w3.org/2000/svg" width="27.778" height="27.778" viewBox="0 0 27.778 27.778">
  <g id="Сгруппировать_533" data-name="Сгруппировать 533" transform="translate(-900.582 -517.425)">
    <path id="Контур_323" data-name="Контур 323" d="M926.681,519.1a5.7,5.7,0,0,0-9.144,1.488.786.786,0,0,0,1.4.7,4.14,4.14,0,1,1,3.815,5.975l-.225-3.286a.787.787,0,0,0-.729-.729l-9.008-.623a.757.757,0,0,0-.608.23L900.81,534.23a.791.791,0,0,0,0,1.111l9.631,9.632a.778.778,0,0,0,.556.23.8.8,0,0,0,.555-.23L922.924,533.6a.778.778,0,0,0,.23-.608l-.3-4.156a5.7,5.7,0,0,0,3.831-9.731M911,543.306l-8.521-8.521,10.57-10.564,7.965.55.152,2.227a4.114,4.114,0,0,1-1.457-.922.791.791,0,0,0-1.1,1.1,5.649,5.649,0,0,0,2.672,1.52l.283,4.067Z" fill="#007fc2"/>
    <path id="Контур_324" data-name="Контур 324" d="M913.519,538.762l.823-.824-1.082-1.082,1.96-1.96-.721-.72-1.959,1.96-.775-.775,1.341-1.341a2.773,2.773,0,1,0-3.916-3.916l-2.165,2.164,3.2,3.2-.773.773.72.721.773-.774.775.775-.773.773.72.72.773-.773Zm-2.474-4.122-2.476-2.475,1.341-1.341a1.751,1.751,0,0,1,2.476,2.476Z" fill="#007fc2"/>
  </g>
</svg>
