<svg xmlns="http://www.w3.org/2000/svg" width="17.967" height="19.435" viewBox="0 0 17.967 19.435">
  <path id="Path_505" data-name="Path 505" d="M362.9,748.764a.044.044,0,0,1-.043.043h-2.637a.043.043,0,0,1-.042-.043v-1.815a.042.042,0,0,1,.042-.043h2.637a.044.044,0,0,1,.043.043Zm-.883,3.189a1.053,1.053,0,0,1-1.052,1.052h-11.9a1.053,1.053,0,0,1-1.052-1.052v-8.192a1.053,1.053,0,0,1,1.052-1.052h11.9a1.053,1.053,0,0,1,1.052,1.052v2.657h-1.8a.532.532,0,0,0-.531.531v1.814a.533.533,0,0,0,.531.532h1.8ZM348.946,741.2l.129,1.022h-.015a1.536,1.536,0,0,0-1.052.418v-.4A1.05,1.05,0,0,1,348.946,741.2Zm1.026-4.137,11.809-1.5a1.052,1.052,0,0,1,1.045.522l-13.736,1.744a1.054,1.054,0,0,1,.882-.767Zm13-.5.11.871-13.895,1.764-.11-.87Zm.809,8.818a1.043,1.043,0,0,1-.7.4l-.575.073v-2.088a1.541,1.541,0,0,0-1.539-1.54h-11.4l-.323-2.543,13.9-1.764.849,6.687A1.046,1.046,0,0,1,363.777,745.377Zm-.391,1.572a.531.531,0,0,0-.531-.531H362.5v-.076l.636-.081a1.54,1.54,0,0,0,1.334-1.721l-1.032-8.128h0l-.02-.155a.231.231,0,0,0-.036-.1,1.542,1.542,0,0,0-1.665-1.079l-11.809,1.5a1.541,1.541,0,0,0-1.343,1.461.242.242,0,0,0-.01.1l.019.155h0l.084.659.069.539h0l.154,1.213a1.54,1.54,0,0,0-1.364,1.528v9.714a1.542,1.542,0,0,0,1.54,1.54h11.9a1.542,1.542,0,0,0,1.54-1.54v-2.658h.352a.532.532,0,0,0,.531-.531Z" transform="translate(-347.02 -734.558)" fill="none" stroke="#ae44b9" stroke-miterlimit="10" stroke-width="1"/>
</svg>
