<svg xmlns="http://www.w3.org/2000/svg" width="21.305" height="19.451" viewBox="0 0 21.305 19.451">
  <path id="Контур_788" data-name="Контур 788" d="M598.886,835.219a2.038,2.038,0,0,0-.662-1.59,2.657,2.657,0,0,0-1.833-.6,2.825,2.825,0,0,0-1.744.508,1.689,1.689,0,0,0-.64,1.281.227.227,0,0,0,.221.243l1.037.022a.386.386,0,0,0,.376-.265.836.836,0,0,1,.2-.332.811.811,0,0,1,.552-.2.8.8,0,0,1,.619.243.892.892,0,0,1,.22.662,1.313,1.313,0,0,1-.2.706,1.59,1.59,0,0,1-.508.508,3.567,3.567,0,0,0-.883.795,1.374,1.374,0,0,0-.221.751.244.244,0,0,0,.265.265h1.126a.263.263,0,0,0,.265-.221,1.063,1.063,0,0,1,.11-.42,1.12,1.12,0,0,1,.42-.441,2.706,2.706,0,0,0,.927-.8,1.939,1.939,0,0,0,.353-1.126m-1.832,4.084a.349.349,0,0,0-.353-.353h-.928a.349.349,0,0,0-.353.353v.6a.349.349,0,0,0,.353.353h.928a.349.349,0,0,0,.353-.353Zm7.462-6.115v6.954a2.317,2.317,0,0,1-1.832,2.252v2.054a.986.986,0,0,1-.265.64,1.061,1.061,0,0,1-.618.221.877.877,0,0,1-.619-.265l-2.583-2.583h-7.882a2.3,2.3,0,0,1-2.3-2.3v-6.977a2.294,2.294,0,0,1,2.3-2.3H602.2a2.284,2.284,0,0,1,2.318,2.3m-6.557,10.774,1.325,1.325a2.3,2.3,0,0,1-2.3,2.163h-7.882l-2.606,2.628a.789.789,0,0,1-.6.265.863.863,0,0,1-.861-.861v-2.054a2.318,2.318,0,0,1-1.832-2.252V838.2a2.294,2.294,0,0,1,2.3-2.3H586.9v1.612h-1.391a.694.694,0,0,0-.707.685v6.954a.712.712,0,0,0,.707.707h1.148v1.81l1.81-1.81h8.545a.711.711,0,0,0,.706-.707v-1.192Z" transform="translate(-583.211 -830.892)" fill="#024b76"/>
</svg>
