<svg xmlns="http://www.w3.org/2000/svg" width="22.86" height="20.626" viewBox="0 0 22.86 20.626">
  <path id="Path_322" data-name="Path 322" d="M1338.547,521a3.137,3.137,0,0,0-3.127,3.127V534.3a3.137,3.137,0,0,0,3.127,3.127h1.07v3.48a.714.714,0,0,0,1.218.506l3.992-3.986h10.332a3.132,3.132,0,0,0,3.121-3.127V524.127a3.132,3.132,0,0,0-3.121-3.127Zm0,1.429h16.612a1.675,1.675,0,0,1,1.692,1.7V534.3a1.674,1.674,0,0,1-1.692,1.7h-10.626a.72.72,0,0,0-.507.205l-2.98,2.981v-2.474a.716.716,0,0,0-.712-.712h-1.787a1.679,1.679,0,0,1-1.7-1.7V524.127a1.68,1.68,0,0,1,1.7-1.7m8.3,2.152a.712.712,0,0,0-.653.449l-.924,2.3-2.472.169a.714.714,0,0,0-.412,1.261l1.9,1.586-.607,2.406a.715.715,0,0,0,1.078.78l2.1-1.319,2.1,1.319a.715.715,0,0,0,1.071-.78l-.6-2.406,1.9-1.586a.714.714,0,0,0-.406-1.261l-2.474-.169-.922-2.3a.713.713,0,0,0-.675-.449m.011,2.631.427,1.066a.714.714,0,0,0,.611.442l1.155.08-.886.738a.716.716,0,0,0-.237.723l.279,1.112-.97-.612a.717.717,0,0,0-.759,0l-.976.612.28-1.112a.715.715,0,0,0-.233-.723l-.886-.738,1.15-.08a.713.713,0,0,0,.618-.442Z" transform="translate(-1335.42 -521)" fill="#007fc2"/>
</svg>
