<svg xmlns="http://www.w3.org/2000/svg" width="26.989" height="26.911" viewBox="0 0 26.989 26.911">
  <g id="Group_537" data-name="Group 537" transform="translate(-1130.539 -516.544)">
    <path id="Path_328" data-name="Path 328" d="M1149.977,533.97l-3.734-1.245v-.555h-.868v.815l-.648,2.591-1.753-2.1H1141.7l-1.753,2.1-.648-2.591v-.815h-.868v.555l-3.735,1.245a4.764,4.764,0,0,0-3.2,3.745l-.957,5.74h23.6l-.957-5.74a4.763,4.763,0,0,0-3.2-3.745m-7.206,8.617v-6.945h-.869v6.945h-6.465l.387-3.863-.864-.086-.4,3.95h-3l.788-4.731a3.9,3.9,0,0,1,2.618-3.064l2.592-.863v3.944a1.736,1.736,0,1,0,.868,0V533.64l.127-.042.962,3.847,2.586-3.1h.462l2.587,3.1.962-3.847.127.042v3.47l-1.645.823a1.724,1.724,0,0,0-.959,1.552v.5a1.738,1.738,0,0,0,1.736,1.736h.434v-.868h-.434a.869.869,0,0,1-.868-.868v-.5a.862.862,0,0,1,.479-.776l1.691-.845,1.691.845a.865.865,0,0,1,.479.776v.5a.869.869,0,0,1-.868.868h-.434v.868h.434a1.716,1.716,0,0,0,1.127-.427l.13,1.295ZM1138,538.681a.868.868,0,1,1-.868.868.869.869,0,0,1,.868-.868m12.112,3.906-.4-3.95-.21.021a1.727,1.727,0,0,0-.747-.725l-1.645-.823v-3.18l2.592.863a3.9,3.9,0,0,1,2.618,3.064l.788,4.73Z" fill="#007fc2"/>
    <path id="Path_329" data-name="Path 329" d="M1136.886,528.239a4.742,4.742,0,0,0,1.206,2.037l1.693,1.692a2.156,2.156,0,0,0,1.535.636h2.034a2.159,2.159,0,0,0,1.535-.636l1.692-1.692a4.744,4.744,0,0,0,1.207-2.037,2.156,2.156,0,0,0,1.046-3.882h.013v-1.3a6.51,6.51,0,1,0-13.021,0v1.3h.013a2.156,2.156,0,0,0,1.047,3.882m10.225-1.339a3.881,3.881,0,0,1-1.144,2.762l-1.693,1.692a1.308,1.308,0,0,1-.92.382h-2.035a1.306,1.306,0,0,1-.92-.382l-1.693-1.692a3.88,3.88,0,0,1-1.144-2.762v-2.109h3.209a5.605,5.605,0,0,1,5.735,0h.6Zm1.736-.807a1.3,1.3,0,0,1-.888,1.229c.012-.14.02-.28.02-.422v-2.029a1.3,1.3,0,0,1,.868,1.222m-12.153-3.038a5.643,5.643,0,0,1,11.285,0v.912a2.145,2.145,0,0,0-.434-.044h-1.039a4.724,4.724,0,0,1-2.627-.795l-.24-.161-.241.161a4.721,4.721,0,0,1-2.626.795h-3.644a2.145,2.145,0,0,0-.434.044Zm0,1.816V526.9c0,.141.008.282.02.422a1.294,1.294,0,0,1-.02-2.451" fill="#007fc2"/>
    <path id="Path_330" data-name="Path 330" d="M1146.677,516.545v.868h9.983v17.362h-3.472v.868h4.34v-19.1Z" fill="#007fc2"/>
    <path id="Path_331" data-name="Path 331" d="M1149.715,523.49h3.038v-.868h-2.17v-.868h2.17v-.868h-2.17v-.869h2.17v-.867h-3.038Z" fill="#007fc2"/>
    <path id="Path_332" data-name="Path 332" d="M1155.792,527.83v-.868h-3.038v4.34h3.038v-.868h-2.17v-.868h2.17V528.7h-2.17v-.868Z" fill="#007fc2"/>
    <path id="Path_333" data-name="Path 333" d="M1148.847,530.434h-1.736v.868h2.6v-2.6h-.868Z" fill="#007fc2"/>
  </g>
</svg>
