<svg xmlns="http://www.w3.org/2000/svg" width="21.039" height="20.113" viewBox="0 0 21.039 20.113">
  <path id="Path_503" data-name="Path 503" d="M356.336,612.96c-.184-.521-.482-.521-.666,0l-1.609,4.55a2.779,2.779,0,0,1-2.372,1.724l-4.825.123c-.552.014-.644.3-.206.634l3.831,2.936a2.78,2.78,0,0,1,.906,2.789l-1.373,4.626c-.157.53.084.705.539.392L354.536,628a2.783,2.783,0,0,1,2.933,0l3.976,2.736c.455.313.7.138.539-.392l-1.374-4.626a2.781,2.781,0,0,1,.907-2.789l3.83-2.936c.439-.336.346-.62-.206-.634l-4.824-.123a2.782,2.782,0,0,1-2.373-1.724Z" transform="translate(-345.483 -611.679)" fill="none" stroke="#ae44b9" stroke-width="1.78"/>
</svg>
