<svg xmlns="http://www.w3.org/2000/svg" width="32" height="32" viewBox="0 0 32 32">
  <g id="Сгруппировать_457" data-name="Сгруппировать 457" transform="translate(-365.107 -1176.664)">
    <circle id="Эллипс_116" data-name="Эллипс 116" cx="15" cy="15" r="15" transform="translate(366.107 1177.664)" fill="none" stroke="#fff" stroke-width="2"/>
    <path id="Контур_709" data-name="Контур 709" d="M380.97,1188.584a.815.815,0,0,0-.819.81v4.052a.806.806,0,0,0,.452.727l3.077,1.565a.875.875,0,0,0,.367.083.813.813,0,0,0,.734-.447.8.8,0,0,0-.367-1.089l-2.625-1.342v-3.549a.815.815,0,0,0-.819-.81" fill="#fff"/>
    <path id="Контур_710" data-name="Контур 710" d="M388.724,1188.919h.028a.9.9,0,0,0,.537-.2.7.7,0,0,0,.254-.558l.169-3.466a.819.819,0,0,0-1.637-.055l-.057,1.229a9.565,9.565,0,0,0-6.55-2.6,9.39,9.39,0,1,0,7.9,14.587.8.8,0,0,0-.226-1.118.824.824,0,0,0-1.129.224,7.787,7.787,0,1,1-.9-9.7l-1.864-.084a.811.811,0,1,0-.056,1.621Z" fill="#fff"/>
  </g>
</svg>
