<svg xmlns="http://www.w3.org/2000/svg" width="40" height="40" viewBox="0 0 40 40">
  <g id="Сгруппировать_534" data-name="Сгруппировать 534" transform="translate(-387.51 -693)">
    <path id="Контур_60" data-name="Контур 60" d="M467.89,207.88a19.623,19.623,0,0,0,14.9-6.911,19.235,19.235,0,0,0,4.613-12.6,19.514,19.514,0,1,0-19.51,19.51Z" transform="translate(-60.38 524.63)" fill="none" stroke="#024b76" stroke-width="0.98"/>
    <path id="Контур_61" data-name="Контур 61" d="M472.13,175.52a13.83,13.83,0,0,0-4.24-.66,13.51,13.51,0,1,0,13.66,13.51,12.671,12.671,0,0,0-.2-2.32" transform="translate(-60.38 524.63)" fill="none" stroke="#ae44b9" stroke-linecap="round" stroke-width="0.98"/>
    <path id="Контур_62" data-name="Контур 62" d="M471.94,181.44a8,8,0,1,0,3.7,9.24,7.84,7.84,0,0,0,0-4.45,3.07,3.07,0,0,1-2.88.62,3.025,3.025,0,0,1-.85-5.41" transform="translate(-60.38 524.63)" fill="#024b76"/>
  </g>
</svg>
