<svg xmlns="http://www.w3.org/2000/svg" width="24.999" height="20" viewBox="0 0 24.999 20">
  <g id="Сгруппировать_536" data-name="Сгруппировать 536" transform="translate(-369.358 -1029.968)">
    <g id="Сгруппировать_456" data-name="Сгруппировать 456">
      <path id="Контур_707" data-name="Контур 707" d="M386.2,1034.466l-4.3,8.568-4.245-8.568L374.13,1044.8h-.61v1.151H377.1v-1.1h-.555l1.748-4.632,3.163,5.73h.86l3.164-5.783,1.775,4.632h-.638v1.151h3.663V1044.8h-.638Z" fill="#fff"/>
      <path id="Контур_708" data-name="Контур 708" d="M390.834,1048.87c-2.387.054-9.961.027-14.54,0h-3.385a10.7,10.7,0,0,1,.833-14.565,11.571,11.571,0,0,1,8.074-3.266,11.256,11.256,0,0,1,11.432,11.031,10.71,10.71,0,0,1-2.414,6.8m-9.018-18.9a12.654,12.654,0,0,0-8.879,3.588,11.8,11.8,0,0,0-.694,16.2.507.507,0,0,0,.417.187h3.662c2.8,0,6.41.027,9.406.027,2.442,0,4.495,0,5.411-.027a.533.533,0,0,0,.416-.214,11.908,11.908,0,0,0,2.8-7.684,12.344,12.344,0,0,0-12.541-12.075" fill="#fff"/>
    </g>
  </g>
</svg>
