<svg xmlns="http://www.w3.org/2000/svg" width="24.999" height="20" viewBox="0 0 24.999 20">
  <g id="Сгруппировать_538" data-name="Сгруппировать 538" transform="translate(-316.395 -936.586)">
    <path id="Контур_693" data-name="Контур 693" d="M333.236,941.084l-4.3,8.568-4.245-8.568-3.524,10.335h-.61v1.151h3.579v-1.1h-.555l1.748-4.632,3.163,5.73h.86l3.164-5.783,1.775,4.632h-.638v1.151h3.663v-1.151h-.638Z" fill="#e5001a"/>
    <path id="Контур_694" data-name="Контур 694" d="M337.871,955.488c-2.387.054-9.961.027-14.54,0h-3.385a10.7,10.7,0,0,1,.833-14.565,11.571,11.571,0,0,1,8.074-3.266,11.256,11.256,0,0,1,11.432,11.031,10.71,10.71,0,0,1-2.414,6.8m-9.018-18.9a12.653,12.653,0,0,0-8.879,3.588,11.8,11.8,0,0,0-.694,16.2.507.507,0,0,0,.417.187h3.662c2.8,0,6.41.027,9.406.027,2.442,0,4.495,0,5.411-.027a.532.532,0,0,0,.416-.214,11.908,11.908,0,0,0,2.8-7.684,12.344,12.344,0,0,0-12.541-12.075" fill="#007fc2"/>
  </g>
</svg>
