<svg xmlns="http://www.w3.org/2000/svg" width="17.126" height="18.06" viewBox="0 0 17.126 18.06">
  <path id="Контур_245" data-name="Контур 245" d="M1331.065,335.674a.632.632,0,0,0-.134-.833,9.223,9.223,0,0,0-1.615-1.16.739.739,0,0,0-.939.13l-.338.424a.62.62,0,0,1-.494.186,4.415,4.415,0,0,1-2.973-2.973.622.622,0,0,1,.187-.494l.423-.338a.737.737,0,0,0,.131-.938c-.125-.215-.36-.6-.537-.84-.187-.257-.625-.779-.625-.779a.643.643,0,0,0-.843-.138h-.006c-.673.381-1.411,1.094-1.174,1.827a10.546,10.546,0,0,0,.917,1.965,11.447,11.447,0,0,0,1.085,1.642,9.173,9.173,0,0,0,1.5,1.5,13.606,13.606,0,0,0,3.6,1.992l.008.011c.734.236,1.445-.5,1.827-1.174Zm.4-3.46a4.615,4.615,0,0,0-4.716-4.91.228.228,0,0,0,0,.455,4.157,4.157,0,0,1,4.26,4.458.228.228,0,0,0,.456,0m-1.658-.473a.227.227,0,0,0,.454.011,3.089,3.089,0,0,0-3.1-3.263.228.228,0,0,0-.033.455,2.636,2.636,0,0,1,2.675,2.8m-.717-.4a1.531,1.531,0,0,0-1.579-1.629.228.228,0,0,0-.026.455,1.091,1.091,0,0,1,1.151,1.2.227.227,0,1,0,.454-.022m4.9,2.85c-.456,3.668-3.139,3.9-3.633,4.06a15.181,15.181,0,0,1-4.627.395s-1.834,2.211-2.405,2.786c-.187.187-.392.169-.389-.2,0-.243.015-3.023.015-3.023h0c-3.59-.994-3.38-4.736-3.34-6.694s.408-3.562,1.5-4.641c1.964-1.782,6.01-1.517,6.01-1.517,3.417.015,5.053,1.044,5.435,1.39,1.258,1.079,1.9,3.661,1.432,7.445m-.49-8.363c-.449-.412-2.262-1.727-6.3-1.745,0,0-4.765-.285-7.086,1.845-1.291,1.291-1.746,3.185-1.8,5.53s-.109,6.74,4.127,7.932h0l0,1.82s-.028.737.459.885c.585.183.93-.377,1.492-.981.306-.331.729-.818,1.051-1.188a16.4,16.4,0,0,0,5.378-.395,5.3,5.3,0,0,0,4.433-5.009c.558-4.535-.268-7.4-1.756-8.694" transform="translate(-1318.307 -324.071)" fill="#fff"/>
</svg>
