<svg xmlns="http://www.w3.org/2000/svg" width="110.637" height="87.512" viewBox="0 0 110.637 87.512">
  <g id="Сгруппировать_639" data-name="Сгруппировать 639" transform="translate(-910.501 -2372.531)">
    <path id="Контур_719" data-name="Контур 719" d="M652.635,1290.547a3.421,3.421,0,0,1,0,5.748c-9.394,4.791-18.788,9.9-28.181,14.692-2.088,1.6-5.567,0-5.567-2.555V1278.41a3.576,3.576,0,0,1,5.219-2.875c9.394,5.111,19.135,10.221,28.529,15.012m-8.7,2.874c-5.915-3.194-11.829-6.388-18.092-9.582V1303c6.263-3.194,12.177-6.388,18.092-9.582" transform="translate(331.972 1122.866)" fill="#fff"/>
    <path id="Контур_720" data-name="Контур 720" d="M670.03,1256.053H598.012a11.325,11.325,0,0,0-11.481,9.581,370.289,370.289,0,0,0,0,55.573,10.971,10.971,0,0,0,11.133,9.582H670.03c5.915,0,10.786-4.152,11.134-9.582a370.564,370.564,0,0,0,0-55.573c-.348-5.429-5.219-9.581-11.134-9.581m-72.018-6.388H670.03c9.394,0,17.4,6.707,18.092,15.331a387.5,387.5,0,0,1,0,56.85c-.7,8.624-8.7,15.331-18.092,15.331H597.664c-9.394,0-17.4-6.707-18.091-15.331a387.5,387.5,0,0,1,0-56.85c.7-8.624,8.7-15.331,18.439-15.331" transform="translate(331.972 1122.866)" fill="#fff"/>
  </g>
</svg>
