<svg xmlns="http://www.w3.org/2000/svg" width="16.915" height="16.914" viewBox="0 0 16.915 16.914">
  <path id="Контур_243" data-name="Контур 243" d="M1287.317,334.781c-.208-.105-1.239-.611-1.432-.679s-.332-.106-.471.105-.539.68-.664.823-.245.159-.453.053a5.7,5.7,0,0,1-2.851-2.491c-.216-.37.215-.344.616-1.144a.386.386,0,0,0-.02-.367c-.052-.1-.471-1.136-.646-1.555s-.343-.351-.471-.359-.26-.007-.4-.007a.771.771,0,0,0-.558.26,2.352,2.352,0,0,0-.733,1.748,4.089,4.089,0,0,0,.853,2.167,9.357,9.357,0,0,0,3.579,3.164,4.1,4.1,0,0,0,2.515.525,2.15,2.15,0,0,0,1.412-1,1.768,1.768,0,0,0,.121-1c-.049-.094-.189-.147-.4-.249M1283.5,340a6.954,6.954,0,0,1-3.549-.97l-.253-.151-2.637.69.7-2.571-.165-.264a6.967,6.967,0,0,1,10.828-8.631A6.917,6.917,0,0,1,1283.5,340m5.927-12.9a8.384,8.384,0,0,0-13.191,10.114l-1.191,4.342,4.445-1.166a8.354,8.354,0,0,0,4.006,1.019h0a8.328,8.328,0,0,0,5.927-14.309" transform="translate(-1275.042 -324.644)" fill="#fff"/>
</svg>
