<svg xmlns="http://www.w3.org/2000/svg" width="24.941" height="26.741" viewBox="0 0 24.941 26.741">
  <g id="Сгруппировать_533" data-name="Сгруппировать 533" transform="translate(-461.711 -14.144)">
    <path id="Контур_19" data-name="Контур 19" d="M485.3,22.33h0a1.26,1.26,0,0,0,.76-.28,1,1,0,0,0,.35-.79l.24-4.94a1.12,1.12,0,0,0-1.11-1.19,1.14,1.14,0,0,0-1.2,1.11L484.3,18a13.37,13.37,0,1,0,1.92,17.08,1.151,1.151,0,1,0-1.92-1.27A11.08,11.08,0,1,1,483,20l-2.63-.12a1.16,1.16,0,0,0-.08,2.31Z" transform="translate(0 -0.17)" fill="#024b76"/>
    <path id="Контур_18" data-name="Контур 18" d="M474.37,21.85A1.16,1.16,0,0,0,473.21,23v5.77a1.15,1.15,0,0,0,.64,1L478.19,32a1.23,1.23,0,0,0,.52.12,1.15,1.15,0,0,0,.51-2.19l-3.7-1.91V23a1.16,1.16,0,0,0-1.15-1.16" transform="translate(0 -0.17)" fill="#024b76"/>
  </g>
</svg>
