<svg xmlns="http://www.w3.org/2000/svg" width="65.662" height="79.995" viewBox="0 0 65.662 79.995">
  <g id="Сгруппировать_537" data-name="Сгруппировать 537" transform="translate(-487.416 -2065.187)">
    <path id="Контур_92" data-name="Контур 92" d="M724.7,331.153a5.162,5.162,0,1,0,5.052,5.161,5.112,5.112,0,0,0-5.052-5.161m0,7.741a2.581,2.581,0,1,1,2.526-2.58,2.555,2.555,0,0,1-2.526,2.58" transform="translate(-193.087 1772.74)" fill="#007fc2"/>
    <path id="Контур_93" data-name="Контур 93" d="M736.784,305.1l-2.186-.747a15.736,15.736,0,0,0-15.228-11.9h-7.3c-17.407,0-31.568,14.47-31.568,32.256v18.064a8.964,8.964,0,0,0,8.092,8.992,26.024,26.024,0,0,0,7.061,13.262v7.421h2.526v-9.032h5.05v-2.581h-5.05v-5.16h7.575v16.773h2.526v-.517a24.87,24.87,0,0,0,5.05.517,25.441,25.441,0,0,0,24.753-20.683,8.967,8.967,0,0,0,8.079-8.992V318.392a13.976,13.976,0,0,0-9.381-13.3m-53.755,37.67a6.43,6.43,0,0,1,5.05-6.322v10.192c0,.826.049,1.646.126,2.464a6.416,6.416,0,0,1-5.176-6.334m20.2,10.321h-2.526v-2.58h2.526Zm-5.05-5.161v-2.559l-.42-.384a6.522,6.522,0,0,1-2.106-4.8v-1.218l1.129-10.4h10.366l1.132,10.4v1.218a6.526,6.526,0,0,1-2.105,4.8l-.421.384v2.559Zm37.881-1.29c0,12.806-10.2,23.225-22.73,23.225a22.428,22.428,0,0,1-5.05-.587v-8.045a14.756,14.756,0,0,0,5.05.891,15.338,15.338,0,0,0,15.153-15.484H725.96a12.781,12.781,0,0,1-12.627,12.9,12.259,12.259,0,0,1-5.05-1.1v-2.773a2.556,2.556,0,0,0-2.526-2.581v-2.58h2.526v-4.014a9.144,9.144,0,0,0,2.526-6.308v-1.291l-1.4-12.9H694.525l-1.387,12.761-.008,1.433a9.141,9.141,0,0,0,2.526,6.308v4.014h2.526v2.58a2.556,2.556,0,0,0-2.526,2.581v5.512a23.586,23.586,0,0,1-5.052-14.544V329.864a8.948,8.948,0,0,1,8.84-9.033h17.891a27.414,27.414,0,0,0,13.644-3.649,12.145,12.145,0,0,1,5.084,9.883Zm2.4,2.464c.077-.813.123-1.633.123-2.464V336.444a6.473,6.473,0,0,1-.123,12.656m5.174-12.644a8.744,8.744,0,0,0-5.051-2.619v-6.772a14.722,14.722,0,0,0-6.926-12.5l-.65-.4-.65.4a24.915,24.915,0,0,1-13.027,3.686H699.444a11.5,11.5,0,0,0-11.365,11.614v3.973a8.746,8.746,0,0,0-5.05,2.62V324.7c0-16.365,13.028-29.676,29.042-29.676h7.3a13.239,13.239,0,0,1,12.935,10.6l.155.713,3.526,1.2a11.4,11.4,0,0,1,7.653,10.849Z" transform="translate(-193.087 1772.74)" fill="#007fc2"/>
    <rect id="Прямоугольник_24" data-name="Прямоугольник 24" width="2.526" height="7.742" transform="translate(507.62 2105.184)" fill="#007fc2"/>
  </g>
</svg>
