<svg xmlns="http://www.w3.org/2000/svg" width="65.345" height="67.501" viewBox="0 0 65.345 67.501">
  <g id="Сгруппировать_542" data-name="Сгруппировать 542" transform="translate(-781.383 -2069.947)">
    <rect id="Прямоугольник_9" data-name="Прямоугольник 9" width="2.108" height="2.177" transform="translate(800.354 2129.827)" fill="#007fc2"/>
    <rect id="Прямоугольник_10" data-name="Прямоугольник 10" width="2.108" height="2.177" transform="translate(827.757 2129.827)" fill="#007fc2"/>
    <g id="Сгруппировать_541" data-name="Сгруппировать 541">
      <path id="Контур_88" data-name="Контур 88" d="M1016.628,347.287H1010.3V334.223H1008.2v15.242h10.54V334.223h-2.108Z" transform="translate(-193.087 1772.74)" fill="#007fc2"/>
      <rect id="Прямоугольник_13" data-name="Прямоугольник 13" width="2.108" height="2.177" transform="translate(819.325 2115.674)" fill="#007fc2"/>
      <g id="Сгруппировать_540" data-name="Сгруппировать 540">
        <rect id="Прямоугольник_14" data-name="Прямоугольник 14" width="2.108" height="2.178" transform="translate(813.002 2099.342)" fill="#007fc2"/>
        <rect id="Прямоугольник_15" data-name="Прямоугольник 15" width="2.108" height="2.178" transform="translate(818.271 2099.342)" fill="#007fc2"/>
        <rect id="Прямоугольник_16" data-name="Прямоугольник 16" width="2.108" height="2.178" transform="translate(823.542 2099.342)" fill="#007fc2"/>
        <g id="Сгруппировать_539" data-name="Сгруппировать 539">
          <path id="Контур_87" data-name="Контур 87" d="M997.656,349.464h8.431V334.222h-8.431Zm2.108-13.065h4.215v10.887h-4.215Z" transform="translate(-193.087 1772.74)" fill="#007fc2"/>
          <rect id="Прямоугольник_11" data-name="Прямоугольник 11" width="2.108" height="2.178" transform="translate(807.731 2111.318)" fill="#007fc2"/>
          <rect id="Прямоугольник_12" data-name="Прямоугольник 12" width="2.108" height="2.177" transform="translate(807.731 2115.674)" fill="#007fc2"/>
          <g id="Сгруппировать_538" data-name="Сгруппировать 538">
            <path id="Контур_89" data-name="Контур 89" d="M1015.574,318.98h-6.324v6.532h6.324Zm-2.108,4.355h-2.108v-2.178h2.108Z" transform="translate(-193.087 1772.74)" fill="#007fc2"/>
            <rect id="Прямоугольник_17" data-name="Прямоугольник 17" width="2.108" height="3.267" transform="translate(834.081 2098.253)" fill="#007fc2"/>
            <rect id="Прямоугольник_18" data-name="Прямоугольник 18" width="2.108" height="2.178" transform="translate(834.081 2093.898)" fill="#007fc2"/>
            <path id="Контур_90" data-name="Контур 90" d="M1028.221,301.56a3.268,3.268,0,1,0,3.163,3.267,3.22,3.22,0,0,0-3.163-3.267m0,4.355a1.09,1.09,0,1,1,1.055-1.088,1.073,1.073,0,0,1-1.055,1.088" transform="translate(-193.087 1772.74)" fill="#007fc2"/>
            <rect id="Прямоугольник_20" data-name="Прямоугольник 20" width="2.108" height="2.178" transform="translate(840.403 2076.478)" fill="#007fc2"/>
            <rect id="Прямоугольник_21" data-name="Прямоугольник 21" width="2.108" height="2.178" transform="translate(827.757 2076.478)" fill="#007fc2"/>
            <path id="Контур_91" data-name="Контур 91" d="M1039.815,312.448V297.206h-23.187v4.354h-5.27a3.219,3.219,0,0,0-3.161,3.267v9.8h-1.055a8.584,8.584,0,0,0-8.431,8.71,8.806,8.806,0,0,0,2.873,6.532h-22.9a2.179,2.179,0,0,1,0-4.355h16.863v-2.177h-4.216v-2.177h6.324V299.383H974.47v21.775h6.323v2.177h-2.107a4.357,4.357,0,0,0,0,8.71h14.755V351.74a6.548,6.548,0,0,0,1.054,12.967,6.4,6.4,0,0,0,6.229-5.444h14.945a6.308,6.308,0,0,0,12.552-1.089,6.479,6.479,0,0,0-5.27-6.434V332.045h2.109V336.4a2.145,2.145,0,0,0,2.108,2.178h4.216a2.145,2.145,0,0,0,2.107-2.178v-2.176h-2.107V336.4h-4.216v-4.354h7.377v-8.71a6.437,6.437,0,0,0-6.324-6.533,6.178,6.178,0,0,0-4.215,1.677v-3.854h-9.486v-6.532h2.108v4.355Zm-21.079-13.065h18.971V310.27h-18.971Zm-29.51,23.952H982.9v-2.178h6.324ZM976.578,301.56h18.971v7.621h-8.958l-2.151,2.961-2.261-9.346-3.091,6.385h-2.51Zm0,17.42v-7.621h3.814l1.124-2.324,1.953,8.074,4.175-5.75h7.905v7.621Zm47.428,4.355a4.218,4.218,0,1,1,8.432,0v6.532h-8.432Zm-29.511,39.194a4.357,4.357,0,1,1,4.216-4.355,4.291,4.291,0,0,1-4.216,4.355m21.174-5.443h-14.945a6.44,6.44,0,0,0-5.175-5.346V332.045h16.863v8.71h2.108v-8.71h6.324V351.74a6.44,6.44,0,0,0-5.175,5.346m10.445,1.088a4.218,4.218,0,1,1-4.216-4.354,4.291,4.291,0,0,1,4.216,4.354M1021.9,316.8v13.065h-14.756a6.536,6.536,0,0,1,0-13.065Zm-9.486-10.887v8.71H1010.3v-9.8a1.073,1.073,0,0,1,1.053-1.09h5.27v2.178Z" transform="translate(-193.087 1772.74)" fill="#007fc2"/>
          </g>
        </g>
      </g>
    </g>
  </g>
</svg>
