<svg xmlns="http://www.w3.org/2000/svg" width="65.439" height="65.25" viewBox="0 0 65.439 65.25">
  <g id="Сгруппировать_547" data-name="Сгруппировать 547" transform="translate(-1076.001 -2071.164)">
    <path id="Контур_81" data-name="Контур 81" d="M1316.22,340.675l-9.055-3.018v-1.345h-2.1v1.975l-1.571,6.282-4.25-5.1h-3.091l-4.252,5.1-1.569-6.282v-1.975h-2.1v1.345l-9.055,3.018a11.554,11.554,0,0,0-7.759,9.08l-2.32,13.919h57.21l-2.321-13.919a11.546,11.546,0,0,0-7.757-9.08m-17.474,20.894V344.731h-2.1v16.838h-15.676l.937-9.366-2.094-.21-.958,9.577h-7.276l1.91-11.469a9.458,9.458,0,0,1,6.349-7.429l6.284-2.094v9.564a4.21,4.21,0,1,0,2.105,0V339.876l.307-.1,2.332,9.327,6.272-7.527h1.119l6.274,7.527,2.332-9.327.307.1v8.414l-3.987,1.995a4.18,4.18,0,0,0-2.327,3.764v1.206a4.214,4.214,0,0,0,4.209,4.209h1.053v-2.1h-1.053a2.107,2.107,0,0,1-2.105-2.1v-1.206a2.093,2.093,0,0,1,1.164-1.883l4.1-2.049,4.1,2.049a2.094,2.094,0,0,1,1.162,1.883v1.206a2.106,2.106,0,0,1-2.1,2.1h-1.053v2.1h1.053a4.166,4.166,0,0,0,2.732-1.034l.315,3.139Zm-11.577-9.471a2.1,2.1,0,1,1-2.1,2.1,2.106,2.106,0,0,1,2.1-2.1m29.368,9.471-.958-9.577-.509.051a4.188,4.188,0,0,0-1.812-1.76l-3.988-1.993v-7.712l6.285,2.094a9.456,9.456,0,0,1,6.348,7.429l1.91,11.468Z" transform="translate(-193.087 1772.74)" fill="#007fc2"/>
    <g id="Сгруппировать_546" data-name="Сгруппировать 546">
      <g id="Сгруппировать_544" data-name="Сгруппировать 544">
        <path id="Контур_83" data-name="Контур 83" d="M1308.217,298.424v2.105h24.206v42.1H1324v2.1h10.524V298.424Z" transform="translate(-193.087 1772.74)" fill="#007fc2"/>
        <g id="Сгруппировать_543" data-name="Сгруппировать 543">
          <path id="Контур_82" data-name="Контур 82" d="M1284.477,326.78a11.5,11.5,0,0,0,2.926,4.938l4.105,4.1a5.227,5.227,0,0,0,3.72,1.541h4.933a5.23,5.23,0,0,0,3.72-1.541l4.1-4.1a11.5,11.5,0,0,0,2.926-4.938,5.227,5.227,0,0,0,2.537-9.413h.032V314.21a15.786,15.786,0,0,0-31.573,0v3.157h.033a5.227,5.227,0,0,0,2.537,9.413m24.793-3.248a9.41,9.41,0,0,1-2.774,6.7l-4.1,4.1a3.17,3.17,0,0,1-2.232.925h-4.932a3.173,3.173,0,0,1-2.232-.925l-4.1-4.1a9.409,9.409,0,0,1-2.774-6.7V318.42h7.782a13.54,13.54,0,0,0,6.951-1.913,13.552,13.552,0,0,0,6.953,1.913h1.468Zm4.21-1.955a3.154,3.154,0,0,1-2.154,2.979c.029-.339.049-.679.049-1.024v-4.919a3.154,3.154,0,0,1,2.1,2.964m-29.468-7.367a13.682,13.682,0,0,1,27.363,0v2.212a5.223,5.223,0,0,0-1.053-.107h-2.52a11.454,11.454,0,0,1-6.369-1.928l-.582-.39-.584.39a11.449,11.449,0,0,1-6.368,1.928h-8.834a5.224,5.224,0,0,0-1.053.107Zm0,4.4v4.919c0,.343.02.685.05,1.024a3.138,3.138,0,0,1-.05-5.943" transform="translate(-193.087 1772.74)" fill="#007fc2"/>
          <path id="Контур_84" data-name="Контур 84" d="M1315.585,315.263h7.367v-2.1h-5.262v-2.105h5.262v-2.1h-5.262v-2.105h5.262v-2.1h-7.367Z" transform="translate(-193.087 1772.74)" fill="#007fc2"/>
          <path id="Контур_85" data-name="Контур 85" d="M1330.318,325.787v-2.105h-7.367v10.524h7.367V332.1h-5.262V330h5.262v-2.1h-5.262v-2.105Z" transform="translate(-193.087 1772.74)" fill="#007fc2"/>
        </g>
      </g>
      <path id="Контур_86" data-name="Контур 86" d="M1313.48,332.1h-4.209v2.105h6.314v-6.315h-2.1Z" transform="translate(-193.087 1772.74)" fill="#007fc2"/>
    </g>
  </g>
</svg>
