<svg xmlns="http://www.w3.org/2000/svg" width="70.132" height="72.318" viewBox="0 0 70.132 72.318">
  <g id="Сгруппировать_551" data-name="Сгруппировать 551" transform="translate(-1367.419 -2067.846)">
    <path id="Контур_97" data-name="Контур 97" d="M1606.882,340.6a3.5,3.5,0,1,0-3.393-3.5,3.453,3.453,0,0,0,3.393,3.5m0-4.666a1.167,1.167,0,1,1-1.131,1.166,1.149,1.149,0,0,1,1.131-1.166" transform="translate(-193.086 1772.74)" fill="#007fc2"/>
    <g id="Сгруппировать_550" data-name="Сгруппировать 550">
      <g id="Сгруппировать_549" data-name="Сгруппировать 549">
        <g id="Сгруппировать_548" data-name="Сгруппировать 548">
          <path id="Контур_94" data-name="Контур 94" d="M1575.21,295.106a5.753,5.753,0,0,0-5.656,5.832v5.832H1563.9a3.451,3.451,0,0,0-3.393,3.5V326.6a3.4,3.4,0,1,0,6.787,0V313.769h2.262v40.823l3.117,10.882a2.628,2.628,0,0,0,5.078,0l3.117-10.71V300.938a5.753,5.753,0,0,0-5.656-5.832m-5.656,16.33h-4.524V326.6a1.132,1.132,0,1,1-2.262,0V310.269a1.15,1.15,0,0,1,1.13-1.165h5.656Zm6.028,53.369a.4.4,0,0,1-.744,0l-2.632-9.045h6.009Zm3.021-11.379h-6.787V318.434h6.787Zm0-37.325h-6.787V300.938a3.4,3.4,0,1,1,6.787,0Z" transform="translate(-193.086 1772.74)" fill="#007fc2"/>
          <path id="Контур_95" data-name="Контур 95" d="M1621.587,304.438v-2.333h-6.867a7.888,7.888,0,0,0-15.676,0h-6.867v2.333h-9.049v62.986h47.509V304.438Zm-6.787,9.331v-2.332h-20.361v-7h6.787v-1.166a5.658,5.658,0,1,1,11.311,0v1.166h6.788v7h-2.262v2.332h4.524v-2.332h2.262v48.988h-26.017v-8.164h-7.917V311.437h2.262v2.332Zm-19.23,40.824v4.184l-4.056-4.184Zm32.8,10.5h-42.983v-58.32h6.786V309.1h-4.524V353.91l8.58,8.848h29.878V309.1h-4.524v-2.333h6.787Z" transform="translate(-193.086 1772.74)" fill="#007fc2"/>
        </g>
        <rect id="Прямоугольник_26" data-name="Прямоугольник 26" width="2.263" height="2.333" transform="translate(1401.354 2088.842)" fill="#007fc2"/>
        <rect id="Прямоугольник_27" data-name="Прямоугольник 27" width="20.36" height="2.333" transform="translate(1405.879 2088.842)" fill="#007fc2"/>
        <rect id="Прямоугольник_28" data-name="Прямоугольник 28" width="24.885" height="2.333" transform="translate(1401.354 2093.509)" fill="#007fc2"/>
        <rect id="Прямоугольник_29" data-name="Прямоугольник 29" width="20.361" height="2.333" transform="translate(1401.354 2098.174)" fill="#007fc2"/>
        <rect id="Прямоугольник_30" data-name="Прямоугольник 30" width="2.263" height="2.333" transform="translate(1423.977 2098.174)" fill="#007fc2"/>
      </g>
      <path id="Контур_96" data-name="Контур 96" d="M1606.882,344.1c6.977,0,12.443-3.075,12.443-7s-5.466-7-12.443-7-12.443,3.075-12.443,7,5.466,7,12.443,7m0-11.664c6,0,10.181,2.459,10.181,4.665s-4.181,4.666-10.181,4.666-10.18-2.459-10.18-4.666,4.18-4.665,10.18-4.665" transform="translate(-193.086 1772.74)" fill="#007fc2"/>
      <path id="Контур_98" data-name="Контур 98" d="M1605.751,358.093h4.526V355.76h-2.263v-2.333h2.263v-2.333h-2.263v-2.333h2.263v-2.332h-4.526Z" transform="translate(-193.086 1772.74)" fill="#007fc2"/>
    </g>
    <rect id="Прямоугольник_32" data-name="Прямоугольник 32" width="9.05" height="2.333" transform="translate(1419.451 2128.501)" fill="#007fc2"/>
    <rect id="Прямоугольник_33" data-name="Прямоугольник 33" width="9.05" height="2.333" transform="translate(1419.451 2123.834)" fill="#007fc2"/>
    <rect id="Прямоугольник_34" data-name="Прямоугольник 34" width="9.05" height="2.333" transform="translate(1419.451 2119.169)" fill="#007fc2"/>
  </g>
</svg>
