<svg xmlns="http://www.w3.org/2000/svg" width="626.255" height="554.656" viewBox="0 0 626.255 554.656">
  <g id="Сгруппировать_540" data-name="Сгруппировать 540" transform="translate(-371.759 -287.734)">
    <g id="Сгруппировать_539" data-name="Сгруппировать 539">
      <g id="Сгруппировать_538" data-name="Сгруппировать 538">
        <path id="Контур_222" data-name="Контур 222" d="M843.5,380.522c22.769,27.332,36.141,66.252,55.746,98.633,7.218,11.138,15.425,22.366,23.947,33.683,42.608,56.588,93.144,115.3,60.832,186.186a214.867,214.867,0,0,1-17.3,31.205c-20.253,30.04-49.62,54.783-90.325,57.927-28.956.7-58.035-.127-86.474,1.685a319.674,319.674,0,0,0-42.083,5.219c-42.531,8.46-75.118,42.638-118.338,46.9-35.3,3.478-69.333-14.712-95.5-33.8-27.776-20.269-57.3-41.435-83.589-63.169-27.785-22.968-57.147-53.637-63.788-89.247-8.943-47.95,31.239-80.11,58.247-117.074a686.74,686.74,0,0,0,54.764-87.394c12.01-23.044,21.615-44.638,27.98-69.362,6.1-23.709,19.847-45.128,41.625-60.082,75.486-51.829,191.164-3.382,253.5,41.414A179.542,179.542,0,0,1,843.5,380.522" fill="#f7ecf8"/>
      </g>
    </g>
    <g id="Сгруппировать_542" data-name="Сгруппировать 542">
      <path id="Контур_225" data-name="Контур 225" d="M885.212,719.143c-33.591,18.544-79.694,27.816-118.821,43.157-13.5,5.7-27.2,12.29-41.023,19.154C656.233,815.77,583.925,857.066,505.1,822.987a263.412,263.412,0,0,1-34.42-17.767c-32.81-20.342-58.681-48.506-58.613-85.339,1.821-26.093,5.415-52.188,5.906-77.895a225.532,225.532,0,0,0-2.2-38.219c-5.9-38.851-42.358-70.58-43.351-109.754-.808-31.995,23.262-61.317,47.659-83.5,25.9-23.547,52.991-48.6,80.444-70.709,29.014-23.364,67.051-47.6,108.726-51.054C665.371,284.1,698.816,322.518,739,349.425a813.452,813.452,0,0,0,95.827,55.442c25.488,12.433,49.523,22.6,77.46,30.075,26.792,7.169,50.248,21.045,65.519,41.69,52.927,71.562-13.451,172.175-70.777,225.066A190.381,190.381,0,0,1,885.212,719.143Z" fill="none" stroke="#ce8fd5" stroke-miterlimit="10" stroke-width="1.292"/>
      <path id="Контур_235" data-name="Контур 235" d="M786.276,629.286c22.917,12.5,34.827,44.782,59.838,52.058,23.561,6.853,51.8-8.931,66.865-27.225,16.655-20.223,24.031-46.3,27.536-71.79,13.4-97.439-22.177-191.585-103.221-243.053C783.745,305.27,715.3,295.267,651.4,309.825c-59.916,13.649-116.788,49.546-150.369,101.915s-41.27,121.244-14.069,174.283S577.69,671.6,637.587,657.844c25.421-5.839,48.834-18.994,73.53-27.785s52.965-12.875,75.159-.773" fill="#d4edfc"/>
    </g>
  </g>
</svg>
