<svg xmlns="http://www.w3.org/2000/svg" width="638.037" height="565.878" viewBox="0 0 638.037 565.878">
  <g id="Сгруппировать_541" data-name="Сгруппировать 541" transform="translate(-984.204 -289.341)">
    <path id="Контур_223" data-name="Контур 223" d="M1135.944,770.044c-22.866-28.567-36.371-69.18-56.09-103-7.257-11.634-15.5-23.365-24.066-35.19-42.808-59.13-93.553-120.5-61.469-194.282a225.15,225.15,0,0,1,17.2-32.469c20.158-31.247,49.45-56.94,90.155-60.081,28.962-.634,58.051.326,86.491-1.469a306.6,306.6,0,0,0,42.077-5.3c42.514-8.676,75-44.194,118.213-48.492,35.3-3.509,69.4,15.566,95.637,35.556,27.851,21.221,57.45,43.382,83.822,66.125,27.868,24.034,57.34,56.1,64.1,93.243,9.1,50.013-30.981,83.4-57.872,121.842a715.023,715.023,0,0,0-54.487,90.916c-11.936,23.981-21.471,46.459-27.756,72.208-6.027,24.7-19.7,46.976-41.435,62.491-75.333,53.774-191.2,2.888-253.7-44.016a183.109,183.109,0,0,1-20.819-18.082" fill="#dff2fd"/>
    <path id="Контур_227" data-name="Контур 227" d="M1108.788,412.456c33.591-18.544,79.694-27.816,118.821-43.157,13.5-5.7,27.2-12.29,41.023-19.154,69.135-34.316,141.443-75.612,220.265-41.533a263.416,263.416,0,0,1,34.42,17.767c32.81,20.342,58.681,48.506,58.613,85.339-1.821,26.093-5.415,52.188-5.906,77.9a225.529,225.529,0,0,0,2.2,38.219c5.9,38.851,42.358,70.58,43.351,109.754.808,31.995-23.262,61.317-47.659,83.5-25.9,23.547-52.991,48.6-80.444,70.709-29.014,23.364-67.051,47.6-108.726,51.054-56.117,4.649-89.562-33.768-129.744-60.675a813.452,813.452,0,0,0-95.827-55.442c-25.488-12.433-49.523-22.6-77.46-30.075-26.792-7.169-50.248-21.045-65.519-41.69-52.927-71.562,13.451-172.175,70.777-225.066A190.377,190.377,0,0,1,1108.788,412.456Z" fill="none" stroke="#b3d8ee" stroke-miterlimit="10" stroke-width="1.292"/>
  </g>
</svg>
